<svg width="63" height="44" viewBox="0 0 63 44" fill="none" xmlns="http://www.w3.org/2000/svg">
<path fill-rule="evenodd" clip-rule="evenodd" d="M37.5025 40.4358V38.3543C36.5543 38.5044 36.0275 38.6345 35.5009 38.8447C34.7634 39.1149 34.5527 39.445 34.5527 40.3056C34.5527 41.0862 34.8687 41.3764 35.5009 41.3764C36.133 41.3764 36.8703 41.0361 37.5025 40.4358ZM33.1832 35.7426L32.8672 35.8627L32.1297 33.9413C33.0779 33.471 33.4992 33.3309 34.342 33.1409C35.1849 32.9506 36.0275 32.8506 36.9757 32.8506C39.7148 32.8506 40.663 33.7512 40.663 36.413V41.5265C40.663 42.0668 40.979 42.337 41.611 42.337H41.7163V43.4078H38.556C37.9238 43.4078 37.6078 43.0976 37.6078 42.4471V42.1268C36.9757 42.6773 36.765 42.7974 36.2383 43.0275C35.7115 43.3477 34.9742 43.5078 34.2367 43.5078C32.3404 43.5078 31.4976 42.5672 31.4976 40.5958C31.4976 39.0247 32.1297 38.024 33.4992 37.5037C33.9207 37.3337 34.342 37.2035 34.7634 37.1035C35.6062 36.9333 36.0275 36.8533 37.5025 36.6231V36.363C37.5025 35.4424 37.1863 35.1121 36.133 35.1121C35.9222 35.1121 35.5009 35.1521 35.1849 35.1921C34.5527 35.3022 34.026 35.4223 33.1832 35.7426ZM29.8148 30.7286C29.8148 29.8079 29.0773 29.2675 27.9184 29.2675C26.6543 29.2675 26.0223 29.8079 26.0223 30.7286C26.0223 31.6692 26.6543 32.2195 27.9184 32.2195C29.0773 32.2195 29.8148 31.6692 29.8148 30.7286ZM29.7094 43.4071V34.0208C29.7094 33.3703 29.2881 32.99 28.6559 32.99H25.3901V34.1208H25.6008C26.233 34.1208 26.4436 34.371 26.4436 34.9413V43.4071H29.7094ZM8.32243 37.8069H4.95129L6.74227 32.2732L8.32243 37.8069ZM3.37114 43.4008L4.42463 40.0284H8.74376L9.79725 43.4008H13.3792L9.58659 30.6021C9.37592 29.7615 8.95459 29.4913 8.00643 29.4913H2.73898V30.6421H3.16047C3.79247 30.6421 4.10847 30.8322 4.10847 31.2926C4.10847 31.5827 4.10847 31.7729 3.79247 32.4633L0 43.4008H3.37114ZM17.908 43.4008V30.5121C17.908 29.8415 17.4865 29.4913 16.7492 29.4913H13.4834V30.6421H13.6941C14.3261 30.6421 14.6422 30.8922 14.6422 31.4326V43.4008H17.908ZM23.8084 30.5121V43.4008H20.5426V31.4326C20.5426 30.8922 20.2266 30.6421 19.5945 30.6421H19.3838V29.4913H22.6496C23.3869 29.4913 23.8084 29.8415 23.8084 30.5121ZM46.6679 43.3982V36.3335C47.4053 35.683 47.9321 35.4328 48.6696 35.4328C49.4069 35.4328 49.6176 35.733 49.6176 36.7937V43.3982H52.8834V36.2933C52.8834 34.8324 52.6727 34.2019 52.2514 33.6516C51.7245 33.1112 51.0925 32.8611 50.1444 32.8611C48.8802 32.8611 47.9321 33.3013 46.4573 34.5121V33.9518C46.4573 33.3013 46.1411 32.9811 45.5091 32.9811H42.3486V34.1119H42.454C43.0861 34.1119 43.4021 34.362 43.4021 34.9324V43.3982H46.6679ZM58.1541 41.4058H63.0001V43.3972H54.5723V41.2357L59.3129 34.9514H56.7845C56.1525 34.9514 55.8364 35.1815 55.8364 35.7519V35.9621H54.6776V34.0708C54.6776 33.3002 54.9936 32.98 55.8364 32.98H62.7893V35.1215L58.1541 41.4058Z" fill="#343451"/>
<path fill-rule="evenodd" clip-rule="evenodd" d="M33.2464 18.9096V5.96589C33.2464 4.92205 32.7838 4.58142 31.7427 4.58142H28.6193V6.00989H28.9664C29.5448 6.00989 29.7761 6.21861 29.7761 6.8559V18.9096H33.2464ZM35.0972 18.9096H38.4518V9.14139C38.4518 8.15248 37.9892 7.75691 36.9481 7.75691H35.0972V18.9096ZM27.9253 18.9096V7.75691H26.0745C25.0334 7.75691 24.5707 8.15248 24.5707 9.14139V18.9096H27.9253ZM42.3848 12.4048C42.3848 18.4591 37.7578 22.8762 31.5113 22.8762C25.2647 22.8762 20.6377 18.4591 20.6377 12.4048C20.6377 6.35052 25.2647 1.93338 31.5113 1.93338C37.7578 1.93338 42.3848 6.35052 42.3848 12.4048ZM44.5827 12.4048C44.5827 5.31766 39.0302 -0.000488281 31.5113 -0.000488281C24.108 -0.000488281 18.4399 5.31766 18.4399 12.4048C18.4399 19.5139 24.108 24.832 31.5113 24.832C39.0302 24.832 44.5827 19.5139 44.5827 12.4048Z" fill="#343451"/>
</svg>
