<svg width="109" height="21" viewBox="0 0 109 21" fill="none" xmlns="http://www.w3.org/2000/svg">
<path fill-rule="evenodd" clip-rule="evenodd" d="M16.7097 4.82851C16.7097 7.49547 14.4421 9.65755 11.6448 9.65755C8.84733 9.65755 6.57974 7.49547 6.57974 4.82851C6.57974 2.16208 8.84733 0 11.6448 0C14.4421 0 16.7097 2.16208 16.7097 4.82851ZM5.06504 10.8648C2.26771 10.8648 0 13.0263 0 15.6932C0 18.36 2.26771 20.5219 5.06504 20.5219C7.86247 20.5219 10.1303 18.36 10.1303 15.6932C10.1303 13.0263 7.86247 10.8648 5.06504 10.8648ZM18.2244 10.8644C15.4271 10.8644 13.1594 13.0263 13.1594 15.6932C13.1594 18.36 15.4271 20.5219 18.2244 20.5219C21.0217 20.5219 23.2894 18.36 23.2894 15.6932C23.2894 13.0263 21.0217 10.8644 18.2244 10.8644Z" fill="url(#paint0_radial_54_101)"/>
<path fill-rule="evenodd" clip-rule="evenodd" d="M41.1118 15.6362C41.1779 16.3526 41.7789 17.2644 42.8202 17.2644H43.4294C43.6656 17.2644 43.8591 17.0798 43.8591 16.8545V4.08074H43.8565C43.8442 3.86554 43.6577 3.69319 43.4294 3.69319H41.5416C41.3133 3.69319 41.1268 3.86554 41.1141 4.08074H41.1118V5.11868C39.9552 3.75947 38.1315 3.19531 36.3028 3.19531C32.1461 3.19531 28.7764 6.4102 28.7764 10.3762C28.7764 14.3424 32.1461 17.5574 36.3028 17.5574V17.5577C38.1315 17.5577 40.1245 16.8809 41.1116 15.6346L41.1118 15.6362ZM36.3102 15.0442C33.6665 15.0442 31.5233 12.9544 31.5233 10.3762C31.5233 7.79841 33.6665 5.70857 36.3102 5.70857C38.9538 5.70857 41.0967 7.79841 41.0967 10.3762C41.0967 12.9544 38.9538 15.0442 36.3102 15.0442Z" fill="#343451"/>
<path fill-rule="evenodd" clip-rule="evenodd" d="M71.8689 15.6362C71.935 16.3526 72.536 17.2644 73.5773 17.2644H74.1865C74.4227 17.2644 74.616 17.0798 74.616 16.8545V4.08074H74.6136C74.6013 3.86554 74.4146 3.69319 74.1865 3.69319H72.2987C72.0704 3.69319 71.8839 3.86554 71.8711 4.08074H71.8689V5.11868C70.7122 3.75947 68.8885 3.19531 67.0598 3.19531C62.903 3.19531 59.5334 6.4102 59.5334 10.3762C59.5334 14.3424 62.903 17.5574 67.0598 17.5574V17.5577C68.8885 17.5577 70.8816 16.8809 71.8687 15.6346L71.8689 15.6362ZM67.0671 15.0442C64.4236 15.0442 62.2803 12.9544 62.2803 10.3762C62.2803 7.79841 64.4236 5.70857 67.0671 5.70857C69.7109 5.70857 71.8537 7.79841 71.8537 10.3762C71.8537 12.9544 69.7109 15.0442 67.0671 15.0442Z" fill="#343451"/>
<path fill-rule="evenodd" clip-rule="evenodd" d="M106.252 15.6362C106.318 16.3526 106.92 17.2644 107.961 17.2644H108.57C108.806 17.2644 109 17.0798 109 16.8545V4.08074H108.997C108.985 3.86554 108.798 3.69319 108.57 3.69319H106.682C106.454 3.69319 106.267 3.86554 106.255 4.08074H106.252V5.11868C105.096 3.75947 103.272 3.19531 101.444 3.19531C97.2866 3.19531 93.917 6.4102 93.917 10.3762C93.917 14.3424 97.2866 17.5574 101.444 17.5574V17.5577C103.272 17.5577 105.265 16.8809 106.252 15.6346L106.252 15.6362ZM101.451 15.0442C98.8072 15.0442 96.6638 12.9544 96.6638 10.3762C96.6638 7.79841 98.8072 5.70857 101.451 5.70857C104.094 5.70857 106.237 7.79841 106.237 10.3762C106.237 12.9544 104.094 15.0442 101.451 15.0442Z" fill="#343451"/>
<path fill-rule="evenodd" clip-rule="evenodd" d="M91.5306 16.0759L91.5297 9.46606H91.5299C91.5299 5.74013 89.0661 3.22656 85.1373 3.22656C83.2618 3.22656 81.7245 4.26123 81.1815 5.15003C81.0641 4.45506 80.6774 3.72455 79.4781 3.72455H78.8668C78.6304 3.72455 78.4373 3.90922 78.4373 4.13455V15.6686V15.6704V16.9093H78.4397C78.452 17.1242 78.6387 17.2968 78.867 17.2968H80.7548C80.7837 17.2968 80.8121 17.2935 80.8395 17.2884C80.8519 17.2861 80.8636 17.2814 80.8757 17.2781C80.8898 17.274 80.9044 17.2708 80.9178 17.2656C80.9346 17.2589 80.9498 17.25 80.9654 17.2417C80.9731 17.2372 80.9811 17.2341 80.9885 17.2294C81.0073 17.2178 81.0246 17.2039 81.0413 17.1896C81.044 17.187 81.0473 17.1852 81.0501 17.1828C81.0688 17.1655 81.086 17.1464 81.1012 17.1266L81.1013 17.1263C81.1486 17.0643 81.1773 16.9898 81.1819 16.9093H81.1843V9.36359C81.1843 7.3625 82.8849 5.74013 84.9825 5.74013C87.08 5.74013 88.7806 7.3625 88.7806 9.36359L88.7823 15.6708L88.7827 15.6686C88.7827 15.6742 88.7836 15.6799 88.7836 15.6859V16.9093H88.7862C88.7986 17.1242 88.9851 17.2968 89.2134 17.2968H91.1013C91.1304 17.2968 91.1586 17.2935 91.1859 17.2884C91.1971 17.2864 91.2074 17.2821 91.2183 17.2792C91.2338 17.275 91.2496 17.2712 91.2645 17.2656C91.2799 17.2595 91.294 17.251 91.3086 17.2431C91.3175 17.2383 91.3269 17.2348 91.3354 17.2294C91.3528 17.2185 91.3688 17.2053 91.3845 17.1922C91.3885 17.1887 91.3929 17.1861 91.3967 17.1825C91.4146 17.166 91.4305 17.1483 91.4451 17.1296C91.4462 17.1282 91.4473 17.1271 91.4485 17.1257C91.495 17.0643 91.5234 16.9903 91.5283 16.9104C91.5283 16.9099 91.5286 16.9093 91.5286 16.9093H91.5311V16.0761L91.5306 16.0759Z" fill="#343451"/>
<path fill-rule="evenodd" clip-rule="evenodd" d="M48.3695 13.807C49.6298 14.64 51.0054 15.0445 52.3274 15.0445C53.5868 15.0445 54.8888 14.4216 54.8888 13.3374C54.8888 11.8899 52.0517 11.6647 50.2692 11.0867C48.4864 10.5087 46.9508 9.31386 46.9508 7.37893C46.9508 4.41815 49.7159 3.19531 52.2968 3.19531C53.932 3.19531 55.6191 3.70976 56.713 4.44671C57.0897 4.71904 56.8602 5.03169 56.8602 5.03169L55.8161 6.45447C55.6988 6.61472 55.4936 6.75317 55.199 6.57973C54.9044 6.40639 53.8713 5.70869 52.2968 5.70869C50.7221 5.70869 49.7736 6.40247 49.7736 7.26239C49.7736 8.29357 51.0064 8.6179 52.4503 8.96937C54.9666 9.61649 57.7115 10.3943 57.7115 13.3374C57.7115 15.9461 55.154 17.5582 52.3274 17.5582C50.1853 17.5582 48.3616 16.9756 46.8321 15.9048C46.5134 15.6005 46.736 15.318 46.736 15.318L47.775 13.9025C47.9864 13.6378 48.2529 13.7301 48.3695 13.807Z" fill="#343451"/>
<defs>
<radialGradient id="paint0_radial_54_101" cx="0" cy="0" r="1" gradientUnits="userSpaceOnUse" gradientTransform="translate(11.7175 12.2687) rotate(36.0129) scale(14.1491 13.5588)">
<stop stop-color="#343451"/>
<stop offset="0.74709" stop-color="#343451"/>
<stop offset="1" stop-color="#343451"/>
</radialGradient>
</defs>
</svg>
