<svg width="82" height="33" viewBox="0 0 82 33" fill="none" xmlns="http://www.w3.org/2000/svg">
<g clip-path="url(#clip0_54_123)">
<path d="M15.9412 0.396413C15.9412 0.550485 15.8037 0.5958 15.1157 0.677367C14.8406 0.713619 14.5746 0.77706 14.5195 0.813312C14.4737 0.849564 14.3086 0.903942 14.1527 0.940194C13.8683 1.00364 13.7491 1.04895 12.6851 1.55648C11.346 2.18183 9.23635 3.59566 8.06231 4.65603C6.88826 5.70734 5.07217 7.57432 4.65025 8.17248C4.53101 8.33561 4.36591 8.55313 4.27418 8.64376C4.18246 8.74345 3.99902 8.98815 3.86144 9.18754C3.72385 9.39599 3.58627 9.57725 3.55875 9.60444C3.52206 9.63163 3.40283 9.81289 3.28359 10.0123C3.16435 10.2117 3.03594 10.3929 3.00842 10.4201C2.89835 10.5017 2.49478 11.2358 1.95362 12.3233C1.66928 12.8943 1.40328 13.4381 1.34825 13.5197C1.30239 13.6103 1.2657 13.7281 1.2657 13.7915C1.2657 13.855 1.21067 14.0181 1.13729 14.1541C1.06391 14.29 0.981362 14.5257 0.944673 14.6888C0.907984 14.861 0.843779 15.0513 0.797918 15.1329C0.458546 15.7582 -6.4522e-05 19.755 0.238413 20.0541C0.284274 20.1175 0.357652 20.3985 0.39434 20.6885C0.421857 20.9785 0.513579 21.3229 0.586957 21.4589C0.651162 21.5948 0.715368 21.7579 0.715368 21.8304C0.715368 22.0661 1.55921 23.199 2.07285 23.6521C2.63236 24.1415 3.68716 24.7034 4.20081 24.794C4.37508 24.8303 4.5677 24.8847 4.61356 24.93C4.77866 25.0478 6.86992 25.1113 7.73211 25.0206C8.7594 24.9028 10.0068 24.7034 10.1352 24.6219C10.1811 24.5947 10.4471 24.5222 10.7222 24.4768C10.9974 24.4225 11.4835 24.3137 11.8137 24.2321C12.1439 24.1596 12.6392 24.0328 12.9328 23.9693C13.2171 23.9059 13.4831 23.8334 13.5381 23.8062C13.584 23.7699 13.8408 23.7065 14.116 23.6612C14.3911 23.6068 14.9231 23.498 15.2992 23.4255C15.6752 23.344 16.2347 23.2352 16.5374 23.1899C16.8401 23.1446 17.2712 23.063 17.5005 23.0086C18.0967 22.8636 21.2061 22.7911 21.7656 22.9089C22.0224 22.9633 22.4168 23.0539 22.6553 23.0993C22.8938 23.1536 23.1598 23.2261 23.2515 23.2805C23.3432 23.3258 23.6367 23.4618 23.9027 23.5705C24.1595 23.6884 24.3797 23.8152 24.3797 23.8515C24.3797 23.8968 24.4255 23.924 24.4806 23.924C24.664 23.924 25.3886 24.5584 25.728 25.0206L26.0582 25.4556L26.6177 24.9572C27.6908 23.9965 28.6998 23.7427 30.7819 23.924C31.4056 23.9693 31.9926 24.0599 32.0843 24.1053C32.176 24.1596 32.3503 24.1959 32.4696 24.1959C32.5888 24.1959 32.7998 24.2593 32.9465 24.3318C33.0841 24.4043 33.2767 24.4678 33.3593 24.4678C33.4418 24.4678 33.7995 24.6128 34.1389 24.785C34.4874 24.9572 34.8085 25.1022 34.8452 25.1022C35.0836 25.1022 34.8268 24.8575 33.9463 24.1959C33.396 23.7971 32.919 23.4437 32.864 23.3983C32.8181 23.3621 32.6071 23.2261 32.4053 23.1083C32.2036 22.9905 32.0201 22.8636 31.9926 22.8274C31.9376 22.7549 30.3324 21.9301 30.2407 21.9301C30.204 21.9301 30.0573 21.8848 29.9105 21.8214C29.4886 21.6492 28.8741 21.477 28.1403 21.3229C27.2597 21.1417 24.1687 21.0601 23.4624 21.2051C23.1873 21.2595 22.6278 21.341 22.2242 21.3864C21.1969 21.5042 19.5367 21.8214 18.1426 22.1658C17.8124 22.2383 17.3171 22.3561 17.0419 22.4105C16.7667 22.4739 16.5007 22.5464 16.4457 22.5736C16.3998 22.6099 16.1705 22.6642 15.9412 22.6914C15.7119 22.7277 15.4459 22.7911 15.345 22.8364C15.2441 22.8818 14.9598 22.9633 14.703 23.0086C13.9967 23.1446 13.3547 23.2896 13.052 23.3802C12.6301 23.5071 11.135 23.7427 9.65827 23.9149C9.00704 23.9874 8.61264 23.9874 7.78714 23.8787C7.20929 23.7971 6.69565 23.7065 6.64061 23.6612C6.58558 23.6249 6.42048 23.5615 6.27373 23.5252C5.71422 23.3893 4.65942 22.5736 4.35673 22.0389C4.15495 21.6945 3.86144 21.0691 3.7422 20.7519C3.58627 20.3169 3.52206 18.459 3.63213 17.8971C3.87978 16.7552 3.93481 16.5286 4.01736 16.2748C4.06322 16.1207 4.19164 15.7129 4.3017 15.3776C4.41177 15.0422 4.54018 14.7432 4.57687 14.716C4.62273 14.6888 4.65942 14.6072 4.65942 14.5257C4.65942 14.4441 4.80617 14.0816 4.98044 13.719C5.15472 13.3565 5.30147 13.0212 5.30147 12.9759C5.30147 12.9215 5.32899 12.8671 5.37485 12.849C5.41154 12.8309 5.53995 12.6134 5.65919 12.3687C5.93435 11.8067 6.69565 10.5742 7.23681 9.7857C7.79631 8.97909 8.08982 8.57125 8.14486 8.51687C8.17237 8.48969 8.42002 8.18154 8.69519 7.83715C9.40145 6.93991 9.66744 6.64083 11.1717 5.16356C12.5934 3.74973 12.9603 3.43252 13.7216 2.91593C15.1891 1.919 16.033 1.55648 17.0511 1.47491C17.5464 1.43866 17.5831 1.44772 17.9041 1.76493C18.1059 1.96431 18.2343 2.17276 18.2343 2.30871C18.2343 2.59873 17.9316 2.89781 17.6381 2.89781C17.3813 2.89781 16.8034 3.23314 16.5741 3.50503C16.299 3.84036 16.1247 4.28445 16.1247 4.67416C16.1247 5.01855 16.1614 5.08199 16.4365 5.25419L16.7576 5.44451L17.1153 5.26325C18.2251 4.70134 19.0965 2.92499 18.7938 1.8465C18.6562 1.3299 18.1242 0.740808 17.7298 0.668304C17.5372 0.632052 17.3904 0.550485 17.3629 0.441729C17.3079 0.29672 17.207 0.269531 16.62 0.269531C16.088 0.269531 15.9412 0.29672 15.9412 0.396413ZM55.0148 0.68643C54.8406 0.713619 54.5654 0.786123 54.4003 0.858627C54.2444 0.931131 54.0518 0.994572 53.9692 0.994572C53.8867 0.994572 53.7491 1.03082 53.6574 1.0852C53.5748 1.13052 53.2996 1.2574 53.0428 1.35709C51.7587 1.89181 49.6583 3.14251 48.4934 4.076C47.301 5.03668 46.8974 5.39013 45.9344 6.34175C44.5127 7.74652 43.8339 8.52594 42.7883 9.92164C42.3022 10.5651 41.8711 11.1361 41.8252 11.1905C41.7885 11.2358 41.6509 11.4442 41.5317 11.6436C41.4125 11.843 41.284 12.0243 41.2565 12.0514C41.1189 12.1602 40.0641 14 39.6239 14.9063C39.3579 15.4501 39.0919 15.9757 39.046 16.0573C39.0002 16.1479 38.9635 16.2658 38.9635 16.3201C38.9635 16.3745 38.9084 16.5467 38.8351 16.7008C38.2756 17.9515 38.0096 19.4922 38.0738 21.0691C38.1288 22.1476 38.1747 22.3652 38.6149 23.2715C38.8351 23.7337 39.4313 24.3771 39.8348 24.5856C40.6695 25.0206 40.8163 25.0569 41.9261 25.0478C42.5131 25.0387 43.0543 24.9934 43.1185 24.9391C43.1735 24.8937 43.3753 24.8212 43.5496 24.785C43.8248 24.7215 44.6594 24.359 45.384 23.9603C45.9894 23.634 47.3469 22.4649 48.044 21.6582C48.3191 21.332 48.5943 21.0238 48.6585 20.9513C49.0896 20.4982 50.1077 18.7762 50.5205 17.8065C50.6305 17.5527 50.7498 17.2717 50.7956 17.1721C50.8415 17.0724 50.9057 16.8458 50.9424 16.6736C50.9699 16.5014 51.0433 16.302 51.0983 16.2386C51.1533 16.1751 51.19 15.6223 51.1992 14.9697C51.2084 13.7553 51.1625 13.6012 50.6856 13.1209C50.4104 12.8399 49.7775 12.7402 49.0804 12.8671C48.7411 12.9215 48.42 13.0031 48.365 13.0393C48.3191 13.0846 48.1724 13.1481 48.0531 13.1843C47.6679 13.3021 46.6406 14.0453 46.0628 14.6253C45.4391 15.2507 45.1455 15.6767 44.6778 16.6283C44.5035 16.9727 44.32 17.3352 44.2742 17.4168C44.2283 17.5074 44.1916 17.6433 44.1916 17.7249C44.1916 17.7974 44.1366 17.9515 44.0816 18.0602C43.8981 18.3684 43.5129 19.9272 43.5863 20.0088C43.6138 20.0269 43.9715 19.755 44.3934 19.4016C44.8153 19.0481 45.2006 18.7581 45.2648 18.7581C45.3198 18.7581 45.384 18.7218 45.4024 18.6856C45.4391 18.5949 46.3013 18.0784 46.5397 17.9968C46.659 17.9605 46.769 17.7611 46.8883 17.3805C47.4753 15.432 48.7502 13.8641 49.7408 13.8641C50.6305 13.8641 50.8782 14.5438 50.5296 16.0845C50.4746 16.3292 50.3829 16.5739 50.337 16.6192C50.282 16.6736 50.2453 16.7914 50.2453 16.882C50.2453 16.9727 50.1903 17.163 50.1169 17.2899C50.0435 17.4258 49.8876 17.734 49.7683 17.9877C49.5574 18.4499 49.0621 19.3109 48.9612 19.3925C48.9337 19.4197 48.7044 19.7006 48.4567 20.0269C47.4478 21.341 45.9619 22.6733 44.9988 23.0993C44.4301 23.353 43.7055 23.4255 43.0451 23.2896C42.5957 23.199 42.4397 23.1083 42.0912 22.7549C41.5225 22.1839 41.3207 21.5223 41.3758 20.471C41.4125 19.6372 41.5959 18.5859 41.7243 18.4499C41.7702 18.3956 41.8069 18.2596 41.8069 18.1327C41.8069 17.9968 41.8711 17.7793 41.9445 17.6343C42.0178 17.4983 42.082 17.308 42.082 17.2264C42.082 17.1449 42.1462 16.9636 42.2196 16.8186C42.293 16.6827 42.3572 16.5195 42.3572 16.4742C42.3572 16.1117 43.8798 13.2478 44.852 11.7886C44.9438 11.6617 45.063 11.4624 45.118 11.3445C45.1822 11.2358 45.2556 11.1451 45.2923 11.1451C45.329 11.1451 45.384 11.0726 45.4115 10.982C45.4666 10.8279 46.0444 10.0304 46.9066 8.93377C48.7869 6.5502 51.4102 4.08506 53.5473 2.69842C54.2169 2.26339 55.4643 1.62898 55.6569 1.62898C55.7395 1.62898 55.8403 1.59273 55.8954 1.53835C55.9412 1.49304 56.2348 1.4296 56.5283 1.40241C57.4913 1.31178 57.5555 1.59273 56.7025 2.15464C56.4549 2.31777 56.1705 2.52622 56.0697 2.60779C55.9688 2.68936 55.6202 2.97031 55.29 3.23314C54.0793 4.17569 52.9511 5.50795 52.309 6.74052C51.7495 7.81902 51.612 8.26311 51.5936 8.9519C51.5661 9.99415 51.8963 10.3476 52.8869 10.3476C53.373 10.3476 53.584 10.3023 54.0885 10.0485C54.8773 9.64975 56.2714 8.29936 56.9594 7.24805C57.6656 6.18768 58.2618 5.00042 58.3719 4.43852C58.3994 4.26632 58.4636 4.076 58.5095 4.02162C58.5553 3.9763 58.6104 3.51409 58.6379 2.9975C58.6562 2.48997 58.7021 2.03682 58.7296 1.9915C58.7571 1.94619 59.0048 1.86462 59.2708 1.80118C59.6835 1.71055 59.8853 1.71961 60.509 1.8465C60.9218 1.92806 61.3253 2.02776 61.417 2.07307C61.4996 2.10932 61.7197 2.20902 61.894 2.28152C62.0683 2.36309 62.3159 2.46278 62.4443 2.51716C62.7012 2.63498 63.4258 3.02469 63.6367 3.1697C63.7101 3.21501 64.1045 3.46878 64.5081 3.7316C64.9117 3.98537 65.5721 4.41133 65.9756 4.66509C66.847 5.21794 67.5533 5.61671 67.6817 5.61671C67.7642 5.61671 69.4336 3.94912 69.4794 3.82223C69.4978 3.78598 69.3052 3.66816 69.0667 3.55034C68.8282 3.44159 68.5714 3.3147 68.498 3.26939C66.9387 2.31777 65.2694 1.4296 64.4164 1.0852C63.4074 0.68643 63.3524 0.677367 61.5546 0.677367C60.2705 0.677367 59.7661 0.704556 59.6743 0.786123C59.6193 0.849564 59.4909 0.903942 59.3992 0.903942C59.3074 0.903942 59.0048 0.976446 58.7388 1.07614L58.2526 1.24834L57.8032 0.967383C57.3813 0.704556 57.2987 0.68643 56.3448 0.668304C55.7945 0.659241 55.1891 0.668304 55.0148 0.68643ZM58.005 2.48997C58.0784 2.77092 57.8857 4.17569 57.7665 4.29351C57.7115 4.34789 57.6748 4.45664 57.6748 4.54727C57.6748 4.96417 56.6567 6.7949 56.0054 7.54713C55.2442 8.43531 54.1527 9.42318 53.9234 9.42318C53.8683 9.42318 53.8225 9.45943 53.8225 9.50474C53.8225 9.57725 53.0245 9.87633 52.8227 9.87633C52.7677 9.87633 52.5842 9.73132 52.4008 9.55912C51.9422 9.09691 51.9697 8.74345 52.6026 7.47463C52.9878 6.67708 53.0245 6.63177 53.6482 5.79797C54.437 4.75572 55.6661 3.56847 56.6383 2.91593C57.684 2.20902 57.9133 2.13651 58.005 2.48997Z" fill="#343451"/>
<path d="M75.1022 0.89452C74.6161 1.03953 73.7631 1.42924 73.5246 1.61956C73.4604 1.67394 72.9743 2.0274 72.4423 2.41711C71.2407 3.29622 68.1313 6.33233 66.9848 7.7371C66.7922 7.9818 66.5262 8.28994 66.407 8.41682C65.9208 8.93341 64.1873 11.3079 63.6828 12.1598C63.637 12.2505 63.371 12.6674 63.1141 13.0933C62.8481 13.5284 62.628 13.909 62.628 13.9543C62.628 13.9996 62.573 14.0903 62.5179 14.1537C62.4537 14.2262 62.3253 14.4165 62.2244 14.5887C62.1327 14.7609 61.9126 15.1688 61.7291 15.495C61.5549 15.8213 61.2155 16.4467 60.9862 16.8907C60.7385 17.362 60.4909 17.7245 60.3808 17.7608C59.8855 17.9421 59.5186 18.0327 59.2893 18.0327C59.0417 18.0327 59.0325 18.0236 59.0967 17.6883C59.1334 17.507 59.2159 17.2533 59.2802 17.1264C59.5003 16.7367 59.6746 16.2745 59.7388 15.9482C59.7755 15.776 59.8488 15.5857 59.8947 15.5222C59.9406 15.4588 59.9864 15.0056 59.9956 14.5072C60.0048 13.6643 59.9864 13.5918 59.7571 13.2837C59.5737 13.0571 59.3719 12.9211 59.0142 12.8124C58.5464 12.6674 58.4822 12.6674 57.9777 12.8124C56.7028 13.184 55.6846 13.8456 54.2905 15.2141C53.0981 16.3923 52.7312 16.8001 52.2634 17.4889C52.19 17.5977 52.0708 17.7427 52.0158 17.8152C51.9516 17.8786 51.8965 17.9511 51.8965 17.9783C51.8965 18.0055 51.7773 18.1958 51.6305 18.4133C51.2545 18.9571 50.539 20.3528 50.4748 20.67C50.4381 20.815 50.3739 20.951 50.3281 20.9782C50.2822 21.0144 50.2455 21.1141 50.2455 21.2047C50.2455 21.3044 50.1813 21.5673 50.0988 21.8029C50.0071 22.0657 49.952 22.5551 49.952 23.0989C49.9428 24.0777 50.1079 24.5399 50.5849 24.8753C50.9334 25.12 52.1992 25.129 52.5386 24.8934C52.6578 24.8118 52.8321 24.7393 52.9238 24.7393C53.0155 24.7393 53.0889 24.7121 53.0889 24.6668C53.0889 24.6306 53.2815 24.4946 53.5292 24.3587C53.9694 24.1049 54.0612 24.0324 55.1618 23.0808C55.7397 22.5823 55.9965 22.3014 56.8037 21.3407C56.9229 21.1866 57.0697 21.0235 57.1247 20.96C57.1705 20.8966 57.2164 20.8241 57.2164 20.7969C57.2164 20.7244 57.62 20.1716 57.7025 20.1353C57.7392 20.1172 57.7667 20.0447 57.7667 19.9812C57.7667 19.9087 57.8218 19.8 57.886 19.7365C57.9502 19.6731 58.1061 19.4284 58.2254 19.1927C58.4822 18.6762 58.8307 18.4858 59.537 18.4858C60.1148 18.4858 60.2341 18.6127 60.0139 19.0296C59.9406 19.1746 59.8763 19.3287 59.8763 19.3831C59.8763 19.4284 59.8305 19.5825 59.7663 19.7275C59.4728 20.4163 59.1517 21.7032 59.0417 22.5642C58.9041 23.7424 59.0784 24.404 59.6379 24.839C60.1332 25.2197 61.3714 25.0928 61.9493 24.6034C62.0135 24.549 62.1969 24.413 62.3712 24.2862C62.5363 24.1593 62.9857 23.7605 63.3618 23.407C63.7378 23.0445 64.0772 22.7454 64.1139 22.7454C64.1965 22.7454 64.1965 22.7454 64.224 23.5702C64.2515 24.2499 64.4808 24.7121 64.8844 24.9296C65.2788 25.129 66.1777 25.0928 66.6913 24.839C67.104 24.6396 68.3423 23.7514 68.5441 23.5067C68.5991 23.4524 68.7367 23.3708 68.8559 23.3345C69.0577 23.2711 69.0669 23.2892 69.0119 23.5702C68.9477 23.9327 69.1586 24.6759 69.3788 24.9024C69.5072 25.0203 69.6998 25.0565 70.2318 25.0475C70.883 25.0475 70.9655 25.0203 71.5709 24.6577C72.4973 24.0958 73.2311 23.4524 74.3226 22.2832C75.0472 21.5038 75.304 21.2047 75.4783 20.9328C75.5608 20.806 75.7259 20.6066 75.836 20.4797C75.9461 20.3528 76.1754 20.0447 76.3496 19.8C76.5147 19.5462 76.7257 19.2562 76.8082 19.1384C76.955 18.939 76.955 18.939 76.6248 18.939C76.3129 18.939 76.2579 18.9934 75.6617 19.7728C74.8821 20.815 74.5427 21.2138 73.9557 21.7938C72.8917 22.8451 72.2863 23.1533 71.9745 22.7817C71.791 22.5642 71.9653 22.1926 73.387 19.8543C74.0933 18.6852 74.7445 17.6067 74.8179 17.4617C74.9004 17.3167 75.0105 17.1354 75.0563 17.0539C75.3774 16.5282 75.625 16.1476 75.7259 15.9935C75.781 15.8938 75.8818 15.7125 75.9369 15.5857C75.9827 15.4678 76.0561 15.341 76.0928 15.3138C76.1295 15.2866 76.2579 15.0781 76.3863 14.8334C76.5056 14.5978 76.6431 14.4075 76.6798 14.4075C76.7257 14.4075 76.7532 14.3622 76.7532 14.3078C76.7532 14.2443 76.8816 13.9996 77.0284 13.7549C77.1843 13.5193 77.3035 13.2655 77.3035 13.2021C77.3035 13.1205 77.0284 13.1024 76.1937 13.1115C75.1389 13.1387 75.0655 13.1477 74.8637 13.3652C74.7445 13.4921 74.6161 13.5918 74.5794 13.5918C74.5427 13.5918 74.3684 13.4468 74.1942 13.2746C73.7814 12.8486 73.332 12.7399 72.5982 12.8668C72.2863 12.9302 71.9928 13.0027 71.9378 13.048C71.8919 13.0843 71.7452 13.1477 71.6259 13.184C71.4975 13.2202 71.3599 13.2837 71.3049 13.329C71.2499 13.3743 70.938 13.6009 70.6262 13.8274C70.3051 14.054 69.8557 14.4075 69.6172 14.6159C69.1586 15.0419 67.5718 16.8273 67.3242 17.1989C67.2416 17.3348 67.1316 17.4889 67.0765 17.5433C67.0307 17.5977 66.9298 17.7245 66.8656 17.8152C66.8014 17.9149 66.6087 18.1868 66.4253 18.4405C66.2419 18.6852 65.9025 19.1746 65.6732 19.5281C65.4347 19.8725 65.2237 20.1806 65.1962 20.2078C65.1595 20.235 65.0403 20.4163 64.9211 20.6156C64.8018 20.815 64.6734 20.9963 64.6459 21.0235C64.6184 21.0507 64.3982 21.3135 64.1689 21.6126C63.1233 22.963 62.3345 23.3527 61.8942 22.7454C61.7383 22.5279 61.7016 22.3739 61.7383 22.0838C61.8025 21.4766 61.9951 20.6247 62.0868 20.5341C62.1327 20.4797 62.1694 20.3619 62.1694 20.2712C62.1694 20.1806 62.2244 19.9722 62.2978 19.8181C62.362 19.655 62.4904 19.3468 62.5821 19.1202C62.894 18.3408 63.4535 17.217 63.5269 17.217C63.6278 17.217 65.8199 15.64 66.251 15.2503C66.3519 15.1597 66.6821 14.8878 66.9848 14.634C67.6911 14.054 71.0848 10.7279 71.5984 10.1207C71.9928 9.64033 72.2955 9.28687 72.6532 8.87904C72.7633 8.75215 73.0568 8.3987 73.2953 8.08149L73.7355 7.51958H73.4145C73.1394 7.51958 73.0476 7.58302 72.6074 8.12681C72.3414 8.4712 72.0846 8.78841 72.0295 8.84278C71.9837 8.89716 71.6535 9.26875 71.3049 9.65845C70.4978 10.5648 67.9387 13.0933 67.0307 13.8818C66.6546 14.2172 66.196 14.6069 66.0217 14.7609C65.8475 14.915 65.6732 15.0419 65.6365 15.0419C65.5998 15.0419 65.5173 15.0963 65.4439 15.1688C65.1871 15.4225 64.6184 15.7669 64.4625 15.7669C64.334 15.7669 64.3065 15.7125 64.3432 15.5585C64.3707 15.4497 64.4441 15.2956 64.4991 15.2231C64.5633 15.1506 64.7009 14.9059 64.811 14.6794C64.9302 14.4528 65.0586 14.2081 65.1045 14.1356C65.1504 14.0631 65.5264 13.4287 65.9392 12.7308C66.3611 12.033 66.728 11.4439 66.7738 11.4348C66.8105 11.4167 66.8472 11.3714 66.8472 11.326C66.8472 11.2626 67.1316 10.8095 67.5993 10.1116C67.7369 9.91222 68.4065 8.98779 68.9752 8.19931C70.5895 5.96074 73.3778 3.03339 74.8546 2.00927C75.4049 1.62862 75.8818 1.48362 76.0745 1.63769C76.2762 1.80082 76.1478 2.4443 75.7718 3.24184C75.5975 3.61342 75.4783 3.93063 75.5058 3.95782C75.57 4.02126 76.2029 3.80375 76.2029 3.71312C76.2029 3.6678 76.2487 3.52279 76.3129 3.37779C76.6431 2.58024 76.744 2.16334 76.7532 1.64675V1.07578L76.3313 0.903583C75.8452 0.695133 75.781 0.695133 75.1022 0.89452ZM59.0233 13.8546C59.3444 14.1175 59.5461 14.8244 59.4269 15.2322C59.3719 15.4135 59.326 15.631 59.326 15.7125C59.326 16.0298 58.5189 17.6611 58.2896 17.797C57.9685 17.9964 56.877 17.1989 56.5744 16.5282C56.2258 15.7941 56.4184 15.1235 57.1889 14.3893C57.886 13.7187 58.6106 13.5102 59.0233 13.8546ZM73.8823 13.9181C74.3042 14.0268 74.2309 14.3531 73.5154 15.5222C73.1485 16.1294 72.8183 16.6914 72.7816 16.7639C72.745 16.8364 72.6441 17.0086 72.5523 17.1445C72.4698 17.2805 72.0937 17.8877 71.7177 18.504C71.3416 19.1202 71.0114 19.6368 70.9747 19.664C70.9472 19.6912 70.8188 19.8725 70.6996 20.0719C70.5803 20.2712 70.4336 20.4797 70.3785 20.5431C70.2134 20.7425 70.1034 20.8785 69.8557 21.2501C69.2503 22.1382 68.324 22.9267 67.8745 22.9267C67.4985 22.9267 67.1774 22.5461 67.2416 22.1564C67.37 21.3769 67.6911 20.6428 68.4982 19.2562C70.0483 16.6007 72.589 13.8546 73.4971 13.8637C73.598 13.8637 73.7722 13.8909 73.8823 13.9181ZM56.2533 17.2895C56.6019 17.6611 57.0146 17.9874 57.299 18.1233C57.7576 18.3408 58.0052 18.7033 57.7943 18.8393C57.7392 18.8665 57.6016 19.0659 57.4824 19.2743C56.3817 21.1504 54.5381 22.9267 53.6851 22.9267C53.5659 22.9267 53.3182 22.7817 53.1256 22.6095L52.7862 22.2923L52.8321 21.6488C52.8596 21.2954 52.933 20.96 52.988 20.9057C53.0431 20.8513 53.0889 20.7425 53.0889 20.661C53.0889 20.4525 53.9144 18.8665 54.373 18.1958C54.5932 17.8786 54.9142 17.4073 55.0885 17.1445C55.2627 16.8907 55.4645 16.6732 55.5471 16.6732C55.6204 16.6732 55.9323 16.9542 56.2533 17.2895Z" fill="#343451"/>
<path d="M81.2933 1.70112C80.4953 2.3446 79.5873 2.97901 79.2296 3.14214C79.1562 3.16933 79.0736 3.22371 79.0461 3.25996C78.9544 3.36872 77.0191 4.25689 76.8632 4.25689C76.8173 4.25689 76.6522 4.32033 76.5146 4.39284C76.3679 4.46534 76.1477 4.52878 76.0101 4.52878C75.8817 4.52878 75.735 4.5741 75.6891 4.61941C75.579 4.72817 74.2307 4.8913 73.3961 4.8913C72.8365 4.8913 72.8365 4.8913 72.3871 5.37164C71.5524 6.25982 71.158 6.72203 71.158 6.79454C71.158 7.03018 73.8271 6.93048 74.8269 6.64953C75.8634 6.35951 77.5786 5.56197 78.2665 5.05444C79.2938 4.30221 80.4678 3.21465 81.1557 2.38991C81.5135 1.96395 81.9996 1.25703 81.9629 1.22078C81.9445 1.20266 81.6419 1.42017 81.2933 1.70112ZM16.8127 6.67672C16.6659 6.69484 16.4642 6.77641 16.3633 6.84891C16.2624 6.92142 16.1248 6.9758 16.0606 6.9758C15.9505 6.9758 15.0425 7.48333 14.9324 7.61021C14.9049 7.6374 14.7123 7.77334 14.5013 7.90929C14.1161 8.17212 12.8136 9.40469 12.1349 10.1479C11.2085 11.1629 10.2271 12.6221 9.67672 13.7821C9.0255 15.1688 8.9246 15.5675 8.9246 16.8092C8.9246 17.933 8.99798 18.2049 9.42907 18.5583C9.70424 18.7849 10.3004 19.0296 10.5664 19.0296C11.2268 19.0205 12.5109 18.4043 13.419 17.6702C14.0794 17.1354 15.923 15.2141 16.2624 14.7247C16.4642 14.4256 16.6568 14.1628 16.7026 14.1537C16.7393 14.1356 16.7668 14.0903 16.7668 14.0449C16.7668 13.9724 17.3263 13.0933 17.5006 12.8939C17.5465 12.8305 17.5923 12.758 17.5923 12.7308C17.5923 12.6946 17.7024 12.5314 17.8308 12.3683C18.0143 12.1236 18.1518 12.0511 18.4912 11.9967C18.7297 11.9605 18.9957 11.897 19.0874 11.8517C19.2066 11.7973 19.2617 11.8064 19.2984 11.9151C19.3534 12.0601 19.2158 12.3955 18.8214 13.048C18.7205 13.2202 18.5462 13.5918 18.427 13.8637C18.3169 14.1356 18.1885 14.4437 18.1427 14.5434C17.9501 14.9422 17.84 15.5857 17.8033 16.4285C17.7666 17.1808 17.7941 17.3801 17.9409 17.6973C18.1977 18.2411 18.6838 18.7033 19.0966 18.8121C19.2342 18.8393 19.3626 18.9027 19.3901 18.948C19.4726 19.093 20.555 19.0296 21.087 18.8574C21.5731 18.6943 22.4628 18.2774 22.6737 18.1142C22.7288 18.078 23.1324 17.7698 23.5818 17.4436C24.0221 17.1173 24.5632 16.6823 24.7833 16.4648C25.2695 16.0026 25.5446 15.8304 25.618 15.9482C25.6455 15.9935 25.618 16.1294 25.563 16.2382C25.4896 16.3651 25.4438 16.8364 25.4438 17.4073C25.4346 18.5402 25.4988 18.658 26.2326 18.9027C26.6178 19.0296 26.7462 19.0296 27.1131 18.939C28.0211 18.6943 28.6999 18.3046 29.4887 17.5705C29.6997 17.3801 29.9106 17.217 29.9565 17.217C30.0665 17.217 30.1583 17.5342 30.1583 17.9692C30.1583 18.4314 30.3692 18.7215 30.837 18.8937C31.2039 19.0296 31.2681 19.0296 31.6809 18.8937C32.167 18.7396 32.7081 18.504 32.8549 18.3861C32.9099 18.3408 33.2034 18.1233 33.5061 17.8877C34.3133 17.2804 35.8267 15.7035 36.8631 14.4075C37.3676 13.7821 37.8171 13.2293 37.8629 13.1658C38.0097 12.9936 37.973 12.9574 37.652 12.9574C37.3676 12.9574 37.2667 13.048 36.5972 13.8365C35.6891 14.9331 34.2582 16.3198 33.8363 16.5192C33.0475 16.8998 32.7357 16.4376 33.231 15.631C33.3594 15.4316 33.5061 15.1688 33.5612 15.0419C33.607 14.9241 33.6896 14.7972 33.7263 14.77C33.7629 14.7428 33.9005 14.5525 34.0198 14.344C34.139 14.1446 34.4509 13.628 34.6985 13.2202C34.9553 12.8033 35.203 12.3955 35.2488 12.3049C35.3039 12.2142 36.0468 10.9816 36.9182 9.56782C37.7804 8.14493 38.4683 6.96673 38.4316 6.93954C38.4041 6.91236 37.8996 6.88517 37.3126 6.88517C36.4779 6.88517 36.2119 6.91236 36.1202 7.02111C35.9092 7.27488 35.6983 7.26581 35.3956 6.98486C34.9553 6.57702 34.139 6.51358 33.4144 6.83985C33.2676 6.91236 33.075 6.98486 33.0016 7.01205C32.3229 7.26581 30.3784 8.93341 29.452 10.0572C29.3144 10.2294 29.1035 10.4741 28.9842 10.601C28.865 10.7279 28.388 11.317 27.9294 11.9151C26.627 13.619 25.9757 14.3803 24.9485 15.4135C22.9673 17.3983 21.7107 17.8424 20.8668 16.8635C20.6559 16.6188 20.6192 16.4829 20.6192 16.0479C20.6192 15.5766 20.8393 14.6794 21.0686 14.1809C21.1236 14.0812 21.2612 13.7731 21.3896 13.5012C21.6465 12.9574 22.0133 12.2777 22.1968 12.0239C22.261 11.9333 22.3986 11.7248 22.4995 11.5526C22.793 11.0632 23.2057 10.4922 23.5543 10.1116C24.5632 8.99685 25.8198 7.8821 26.0766 7.8821C26.1408 7.8821 26.2142 7.82772 26.2417 7.76428C26.2601 7.70084 26.4527 7.65552 26.737 7.65552C27.1223 7.65552 27.2323 7.69178 27.3974 7.8821C27.7643 8.32619 27.5717 8.7159 26.9205 8.82465C26.0766 8.97872 25.3245 10.3382 25.8106 10.8185C26.1867 11.1901 26.9388 10.8638 27.4341 10.1207C27.9386 9.35031 28.0578 9.05123 28.1129 8.36244C28.1771 7.62833 28.0303 7.28394 27.48 6.88517C27.214 6.68578 27.0856 6.66765 26.3518 6.66765C25.7648 6.67672 25.4438 6.72203 25.2511 6.82173C25.1044 6.90329 24.9485 6.9758 24.9118 6.9758C24.8384 6.9758 23.9028 7.51958 23.8294 7.61021C23.8019 7.6374 23.5543 7.83678 23.2791 8.0543C23.0039 8.26275 22.4077 8.77027 21.9583 9.17811C20.8026 10.2294 20.5825 10.4197 20.5091 10.4197C20.4724 10.4197 20.3899 10.4832 20.3165 10.5466C20.0964 10.7641 18.9957 11.326 18.7847 11.326C18.5646 11.326 18.4362 11.0904 18.5921 10.9363C18.6471 10.882 18.693 10.7823 18.693 10.7098C18.693 10.6373 18.748 10.456 18.8214 10.3019C19.2525 9.30499 19.3626 8.01804 19.0599 7.42895C18.7847 6.89423 18.4178 6.68578 17.6932 6.65859C17.363 6.64047 16.9686 6.64953 16.8127 6.67672ZM18.0968 7.68271C18.3903 7.89116 18.5462 8.30806 18.5371 8.8609C18.5371 9.17811 18.482 9.48625 18.427 9.54063C18.372 9.59501 18.3261 9.71283 18.3261 9.81252C18.3261 9.97566 18.0601 10.6282 17.8216 11.0542C17.4731 11.6704 16.1523 11.1448 15.602 10.175C15.4644 9.93034 15.446 9.36843 15.5745 9.28687C15.6295 9.25968 15.6662 9.15092 15.6662 9.06029C15.6662 8.84278 16.6843 7.81866 17.042 7.67365C17.2438 7.60114 17.9867 7.60115 18.0968 7.68271ZM35.203 7.79147C35.469 8.0543 35.4781 8.03617 34.7719 9.19624C34.7077 9.29593 34.616 9.48625 34.5518 9.6222C34.4967 9.76721 34.4233 9.87596 34.3775 9.87596C34.3408 9.87596 34.2858 9.94847 34.2491 10.03C34.2216 10.1207 34.1115 10.311 34.0106 10.4651C33.9097 10.6101 33.7813 10.8457 33.7263 10.9816C33.6712 11.1267 33.5887 11.2354 33.5428 11.2354C33.4969 11.2354 33.4603 11.2898 33.4603 11.3532C33.4603 11.4257 33.341 11.6523 33.1851 11.8517C33.0383 12.0601 32.9099 12.2686 32.9099 12.3139C32.9099 12.3592 32.8549 12.4589 32.7907 12.5224C32.7265 12.5858 32.4788 12.9664 32.2312 13.3562C31.9927 13.7549 31.6533 14.2625 31.4791 14.489C31.3048 14.7156 31.0755 15.0238 30.9654 15.1778C30.8554 15.3228 30.4609 15.7488 30.0941 16.1023C29.4979 16.6913 29.3786 16.7639 29.0759 16.7639C28.8925 16.7639 28.6907 16.7276 28.6357 16.6913C28.4247 16.5554 28.3055 16.2019 28.3697 15.8847C28.4339 15.5585 28.4522 15.495 28.7182 14.9694C28.8008 14.7972 28.8742 14.625 28.8742 14.5706C28.8742 14.5162 29.0576 14.1718 29.2869 13.8002C29.5162 13.4377 29.6997 13.1115 29.6997 13.0933C29.6997 13.0208 30.2867 12.187 30.9746 11.2807C33.2768 8.22649 34.5701 7.16612 35.203 7.79147ZM15.0975 10.7732C15.2993 11.0904 16.0789 11.6886 16.2991 11.6886C16.4458 11.6886 17.1337 12.0601 17.1337 12.1327C17.1337 12.2233 16.8402 12.8124 16.7668 12.8668C16.7393 12.8939 16.6109 13.0752 16.4917 13.2746C16.3724 13.474 16.2349 13.6734 16.1982 13.7277C16.1615 13.7731 15.9413 14.0631 15.7212 14.3622C15.1525 15.1234 13.8776 16.3107 13.3456 16.5645C12.8136 16.8273 12.5201 16.782 12.1624 16.3741C11.7038 15.8757 11.823 15.0781 12.5843 13.5012C12.9879 12.6583 14.272 10.6644 14.5197 10.4922C14.7123 10.3472 14.8957 10.4379 15.0975 10.7732ZM40.532 7.11174C40.4403 7.21144 40.3394 7.35644 40.3027 7.42895C40.2752 7.50145 40.0643 7.84585 39.8441 8.1993C39.6148 8.5437 39.4681 8.86997 39.5047 8.90622C39.5414 8.94247 40.0276 8.9606 40.5687 8.95153L41.5685 8.92435L41.9629 8.35337C42.183 8.03617 42.3573 7.76428 42.3573 7.74615C42.3573 7.72803 42.4582 7.55583 42.5866 7.37457C42.715 7.19331 42.7884 7.01205 42.7701 6.9758C42.7425 6.93048 42.2656 6.90329 41.7061 6.91236C40.8255 6.92142 40.6788 6.94861 40.532 7.11174ZM9.28232 27.6757C9.26398 27.7301 9.23646 28.4189 9.22729 29.2074L9.19977 30.6484L8.89709 30.9112C8.68613 31.1015 8.51185 31.174 8.25503 31.174C7.73222 31.174 7.56712 31.1015 7.33781 30.7753C7.15437 30.5034 7.13602 30.3856 7.13602 29.0533V27.6304L6.75996 27.6576L6.37473 27.6848L6.39307 29.1349C6.41142 30.739 6.43893 30.9384 6.69576 31.2556C7.03513 31.6997 7.35616 31.8085 8.24586 31.8085H9.07136L9.46576 31.4188C9.69507 31.1831 9.87851 30.9022 9.9152 30.73C9.95189 30.5578 9.97941 29.8055 9.97941 29.0442V27.6576L9.64921 27.6213C9.46576 27.6032 9.30066 27.6213 9.28232 27.6757ZM17.363 27.6123C17.2163 27.6395 16.8861 27.7935 16.6293 27.9657C15.9964 28.3736 15.7212 28.9174 15.7212 29.724C15.7212 30.5396 15.9964 31.0744 16.6476 31.5003C17.1062 31.7994 17.1979 31.8266 17.8583 31.8356C18.8581 31.8447 19.3809 31.5909 19.8762 30.8568C20.0872 30.5306 20.1147 30.4128 20.1147 29.6786C20.1147 28.8811 20.1055 28.8449 19.8028 28.4642C19.3442 27.8932 18.904 27.6576 18.2161 27.6032C17.895 27.5851 17.519 27.5851 17.363 27.6123ZM18.8398 28.5458C19.1241 28.8086 19.4176 29.3977 19.4268 29.7058C19.4268 30.0412 19.0782 30.7481 18.8031 30.9475C18.6563 31.0562 18.3628 31.1378 18.0326 31.1559C17.5923 31.1922 17.4456 31.165 17.1979 30.9928C16.7393 30.6846 16.5559 30.3765 16.51 29.8599C16.4642 29.2618 16.6659 28.7995 17.1246 28.4914C17.4089 28.292 17.5373 28.2648 18.0234 28.292C18.4729 28.3192 18.6471 28.3736 18.8398 28.5458ZM47.1727 27.7029C47.0993 27.7664 47.0168 27.9114 46.9801 28.0292C46.9251 28.2014 46.7324 28.6727 46.4848 29.2255C46.4389 29.3252 46.3197 29.6061 46.2096 29.8599C46.0996 30.1046 45.9803 30.3946 45.9345 30.4943C45.5034 31.4459 45.3841 31.7269 45.3841 31.7631C45.3841 31.7903 45.5676 31.8085 45.7969 31.8085C46.1087 31.8085 46.2096 31.7722 46.2096 31.6635C46.2096 31.5909 46.3013 31.3644 46.4206 31.174L46.6224 30.8115H47.5579C48.5852 30.8115 48.5852 30.8115 48.8329 31.4913C48.9246 31.736 48.9796 31.7631 49.3649 31.7903C49.6125 31.8085 49.7868 31.7903 49.7684 31.745C49.6951 31.5819 49.4841 31.1106 49.374 30.8568C49.1998 30.4581 48.998 29.9959 48.8329 29.6152C48.5669 29.0261 48.4293 28.6908 48.2734 28.3192C48.1908 28.1198 48.0899 27.8932 48.0532 27.8207C47.9432 27.6304 47.3286 27.5398 47.1727 27.7029ZM47.8423 29.153C47.9615 29.3886 48.0899 29.6605 48.1358 29.7421C48.3192 30.0684 48.1541 30.1862 47.5488 30.159C47.0993 30.1409 46.9893 30.0955 46.9618 29.9777C46.9251 29.7783 47.4662 28.6092 47.5671 28.6727C47.6038 28.6908 47.7322 28.9083 47.8423 29.153ZM64.5907 27.6304C64.5724 27.6485 64.554 28.6002 64.554 29.7421V31.8085L66.1317 31.7903L67.7185 31.7631L67.7368 31.4731L67.7643 31.174H66.7279C65.3153 31.174 65.2878 31.165 65.2878 30.6393C65.2878 30.4037 65.3337 30.1681 65.3979 30.1046C65.4713 30.0321 65.8382 29.9959 66.4527 29.9959H67.3974V29.3977L66.6178 29.4339C66.1133 29.4611 65.7464 29.4339 65.563 29.3614C65.3062 29.2618 65.2878 29.2164 65.2878 28.8086C65.2878 28.2739 65.2786 28.2829 66.7095 28.2467L67.7093 28.2286V27.6848L66.1684 27.6395C65.3245 27.6123 64.6091 27.6123 64.5907 27.6304ZM74.3408 27.6213C74.0931 27.6395 73.9005 27.7392 73.6804 27.9657C73.3869 28.2558 73.3594 28.3283 73.3594 28.8086C73.3594 29.298 73.3869 29.3705 73.6345 29.579C73.7905 29.7058 74.0931 29.8508 74.3041 29.9052C74.5151 29.9596 74.7627 30.0412 74.8453 30.0865C74.937 30.1409 75.0837 30.1771 75.1755 30.1771C75.3497 30.1771 75.7441 30.5306 75.7441 30.6846C75.7441 30.739 75.6616 30.8659 75.5607 30.9747C75.2947 31.2556 74.4967 31.2556 74.0014 30.9747L73.6437 30.7662L73.4419 30.9656C73.1759 31.2284 73.2585 31.3916 73.7813 31.6181C74.3316 31.8628 75.5057 31.881 75.9001 31.6544C76.267 31.455 76.4779 31.0562 76.4779 30.585C76.4779 30.2496 76.4229 30.1318 76.1661 29.869C75.9551 29.6605 75.7258 29.5427 75.4781 29.4974C75.2672 29.4611 75.0837 29.3977 75.0471 29.3524C75.0195 29.3071 74.9003 29.2708 74.7902 29.2708C74.2674 29.2708 73.8638 28.582 74.2674 28.3645C74.5334 28.2286 75.313 28.2558 75.524 28.4098C75.6157 28.4823 75.7533 28.5458 75.8267 28.5458C75.9826 28.5458 76.1936 28.2829 76.2028 28.0926C76.2028 27.7845 75.2397 27.5398 74.3408 27.6213ZM2.09131 29.724V31.8085H5.30158V31.174H4.23761C2.98101 31.174 2.82509 31.1197 2.82509 30.6393C2.82509 30.0956 3.00853 29.9959 4.03582 29.9959C4.96221 29.9959 5.07228 29.9505 4.97138 29.5699C4.92552 29.4158 4.84297 29.3977 4.07251 29.4339C3.29287 29.4702 3.19197 29.4521 3.0177 29.2799C2.76088 29.0261 2.75171 28.5005 2.99936 28.3645C3.10025 28.3192 3.65976 28.2739 4.23761 28.2739H5.30158V27.6395H2.09131V29.724ZM11.2177 29.724V31.8175L11.6304 31.7903L12.0432 31.7631L12.0156 31.2375C11.9698 30.594 12.0798 30.449 12.5843 30.449C12.9512 30.449 12.9695 30.4671 13.419 31.1287L13.8776 31.8085H14.8682L14.6939 31.6091C14.6022 31.5003 14.483 31.3644 14.4279 31.31C14.3821 31.2556 14.2537 31.0562 14.1528 30.875C14.0519 30.6937 13.9418 30.5396 13.9051 30.5396C13.7308 30.5396 13.8593 30.304 14.0977 30.159C14.538 29.9143 14.7031 29.579 14.7031 28.9445C14.7031 28.4733 14.6664 28.3373 14.483 28.147C14.061 27.7029 13.8134 27.6395 12.4651 27.6395H11.2177V29.724ZM13.685 28.4642C13.8684 28.6092 13.9235 28.727 13.9235 28.9989C13.9235 29.5699 13.5291 29.8146 12.6302 29.8146C12.1349 29.8146 11.9973 29.6333 11.9973 28.9989C11.9973 28.3554 12.089 28.2829 12.8778 28.2739C13.3089 28.2739 13.4924 28.3192 13.685 28.4642ZM21.3529 27.6848C21.3529 27.712 21.3438 28.6364 21.3438 29.7421V31.7631H22.0225L22.0317 31.2012C22.0409 30.8931 22.0775 30.6121 22.1142 30.5759C22.1509 30.5306 22.4811 30.4853 22.848 30.4671C24.1138 30.4037 24.5174 30.0593 24.5174 29.0442C24.5174 27.9114 24.1046 27.6395 22.4261 27.6395C21.8299 27.6395 21.3529 27.6576 21.3529 27.6848ZM23.5451 28.5095C23.912 28.8177 23.9303 29.2527 23.6001 29.588C23.3983 29.7783 23.2791 29.8146 22.793 29.8146C22.4628 29.8146 22.1693 29.7693 22.1051 29.7058C22.0409 29.6424 21.995 29.3614 21.995 29.0805C21.995 28.4098 22.1234 28.2739 22.7746 28.2739C23.169 28.2739 23.325 28.3192 23.5451 28.5095ZM25.5722 29.6333V31.6906C25.5722 31.736 26.2784 31.7631 27.1498 31.7631H28.7274V31.2194L27.7735 31.2012C27.2415 31.1831 26.7187 31.1559 26.6178 31.1287C26.3793 31.0744 26.2601 30.585 26.3977 30.2315C26.4802 29.9959 26.4986 29.9959 27.4066 29.9959C28.1771 29.9959 28.3422 29.9687 28.388 29.8508C28.4155 29.7693 28.4064 29.6333 28.3513 29.5608C28.278 29.443 28.1037 29.4158 27.4341 29.443C26.6545 29.4611 26.5903 29.4521 26.4527 29.2618C26.2876 29.017 26.2601 28.6998 26.3977 28.4461C26.4894 28.292 26.5994 28.2739 27.59 28.2739H28.6907V27.6395H25.5722V29.6333ZM31.2589 27.7392C31.2589 27.8207 31.1397 28.1017 30.8003 28.863C30.7545 28.9627 30.6352 29.2436 30.5252 29.4974C30.4151 29.7421 30.2958 30.0321 30.25 30.1318C30.2041 30.2315 30.0849 30.5124 29.9748 30.7662C29.8739 31.0109 29.7272 31.3281 29.6538 31.4641C29.4612 31.7994 29.4703 31.8085 29.8739 31.8085C30.25 31.8085 30.4518 31.6181 30.5802 31.1378C30.6536 30.8387 30.8278 30.7934 31.8551 30.8297L32.6806 30.8568L32.9099 31.3281C33.1301 31.7903 33.1484 31.8085 33.5336 31.8085C33.7446 31.8085 33.9189 31.7813 33.9189 31.7541C33.9189 31.7178 33.8271 31.5003 33.7263 31.2737C33.6162 31.0472 33.4694 30.7209 33.3961 30.5668C33.3318 30.4037 33.2126 30.1318 33.1301 29.9505C33.0567 29.7783 32.9374 29.4974 32.8549 29.3161C32.7815 29.1439 32.6623 28.872 32.5889 28.7089C32.5155 28.5458 32.3871 28.2376 32.3046 28.0201C32.1395 27.6485 32.1303 27.6395 31.6992 27.6395C31.4515 27.6395 31.2589 27.6848 31.2589 27.7392ZM31.8735 28.7995C31.9285 28.8358 32.0111 28.9899 32.0477 29.1349C32.0844 29.2889 32.1762 29.4974 32.2404 29.6061C32.4788 29.9596 32.3229 30.159 31.7909 30.1952C31.1397 30.2315 30.9012 29.9868 31.2131 29.579C31.2864 29.4883 31.3507 29.3614 31.3507 29.298C31.3507 29.2436 31.3873 29.0896 31.4424 28.9627C31.5341 28.727 31.6717 28.6727 31.8735 28.7995ZM34.8361 29.724V31.8085H35.6799L35.6524 30.5124C35.6249 29.2255 35.6249 29.2074 35.9276 29.2527C35.9734 29.2618 36.3128 29.6696 36.6797 30.1499C37.0466 30.6393 37.441 31.1378 37.5602 31.2647C37.6795 31.3916 37.7987 31.5638 37.8262 31.6544C37.8629 31.7813 37.9546 31.8085 38.239 31.7903L38.6059 31.7631V27.6848L38.2298 27.6576L37.8629 27.6304V28.7995C37.8629 30.4128 37.8079 30.4399 36.9457 29.298C36.5696 28.8086 36.2486 28.3917 36.2211 28.3645C36.1844 28.3373 36.0652 28.1651 35.9368 27.9839C35.7258 27.6667 35.6708 27.6395 35.2764 27.6395H34.8361V29.724ZM41.8987 29.724V31.8085H42.6325V31.2375C42.6325 30.9112 42.6783 30.6212 42.7425 30.5578C42.8067 30.4943 43.1278 30.449 43.5222 30.449C44.256 30.449 44.577 30.3131 44.9347 29.8599C45.2282 29.4974 45.219 28.582 44.9255 28.2104C44.5586 27.7482 44.1826 27.6395 42.981 27.6395H41.8987V29.724ZM44.1826 28.5367C44.4944 28.8449 44.4853 29.3252 44.1551 29.5971C43.9533 29.7783 43.8065 29.8146 43.3296 29.8146C42.6508 29.8146 42.6325 29.7874 42.6325 29.008C42.6325 28.3373 42.7242 28.2467 43.4121 28.292C43.8432 28.3192 44.0175 28.3736 44.1826 28.5367ZM50.7957 27.6848C50.7957 27.712 50.7866 28.6364 50.7866 29.7421V31.7631H51.4836L51.4561 31.2375C51.4103 30.585 51.5203 30.449 52.0432 30.449C52.4192 30.449 52.7219 30.6121 52.7219 30.8206C52.7219 30.875 52.7769 30.9656 52.8411 31.029C52.8962 31.1015 53.0154 31.2466 53.0888 31.3553C53.1622 31.4641 53.2722 31.6181 53.3181 31.6906C53.3915 31.7813 53.5474 31.8085 53.8501 31.7903L54.2903 31.7631L53.8226 31.1287C53.5749 30.7843 53.3639 30.4671 53.3639 30.4309C53.3639 30.3946 53.5474 30.1952 53.7767 29.9868C54.1803 29.6152 54.1894 29.6061 54.1894 29.0261C54.1894 28.3645 54.061 28.1017 53.5841 27.8298C53.2997 27.6667 53.1071 27.6395 52.0248 27.6395C51.3461 27.6395 50.7957 27.6576 50.7957 27.6848ZM53.2631 28.5458C53.5291 28.863 53.5107 29.2799 53.2172 29.5518C53.0154 29.7421 52.8962 29.7693 52.3091 29.7693C51.9423 29.7693 51.6029 29.7421 51.5662 29.6968C51.5295 29.6605 51.4745 29.3886 51.4561 29.1077C51.4011 28.3555 51.5295 28.2467 52.41 28.292C52.9787 28.3192 53.098 28.3554 53.2631 28.5458ZM55.0792 27.7029C55.0516 27.7482 55.0425 27.8751 55.0516 28.002C55.0608 28.2104 55.0975 28.2286 55.6111 28.2739C55.9138 28.3011 56.2165 28.3554 56.2807 28.3917C56.3633 28.4461 56.3908 28.8992 56.3908 30.1409V31.8085H57.2163V30.0956C57.2163 28.147 57.1612 28.2739 58.0509 28.2739H58.5921V27.6395H56.8586C55.8955 27.6395 55.0975 27.6667 55.0792 27.7029ZM59.5093 29.724V31.8085H60.2431V30.6393C60.2431 29.4249 60.2798 29.1802 60.4632 29.1802C60.5183 29.1892 61.0136 29.7783 61.5639 30.4943C62.5453 31.7903 62.5637 31.8085 62.9122 31.8085H63.2699V27.6395H62.5362V28.9083C62.5362 29.869 62.5086 30.1771 62.4261 30.1771C62.2518 30.1681 62.0592 29.9959 61.784 29.588C61.6465 29.3886 61.3896 29.0624 61.2062 28.863C61.0319 28.6636 60.8852 28.4733 60.8852 28.4461C60.8852 28.4098 60.7659 28.2467 60.61 28.0836C60.4632 27.9114 60.3348 27.7482 60.3348 27.7029C60.3348 27.6667 60.1514 27.6395 59.9221 27.6395H59.5093V29.724ZM68.865 29.724V31.8085H69.5988V31.2737C69.5988 30.5124 69.6354 30.449 70.1032 30.449C70.4518 30.449 70.5343 30.4853 70.7636 30.7843C70.9104 30.9747 71.1213 31.2737 71.2314 31.4641C71.4149 31.7541 71.4882 31.7903 71.8551 31.8266C72.0844 31.8447 72.2954 31.8266 72.3137 31.7903C72.3412 31.7541 72.167 31.4731 71.9377 31.1559C71.7084 30.8478 71.5249 30.5306 71.5249 30.4399C71.5249 30.3584 71.6258 30.2134 71.7542 30.1227C72.3504 29.6877 72.5247 28.8358 72.1486 28.2739C71.7726 27.7301 71.5341 27.6576 70.1307 27.6485L68.865 27.6395V29.724ZM71.103 28.3645C71.2406 28.4098 71.4057 28.5911 71.4882 28.7633C71.635 29.0624 71.635 29.0805 71.4332 29.3614C71.3231 29.5155 71.1305 29.6877 71.0021 29.733C70.6444 29.869 69.9014 29.8327 69.7455 29.6696C69.5712 29.4974 69.5437 28.5458 69.7088 28.3826C69.8372 28.2558 70.7728 28.2376 71.103 28.3645Z" fill="#343451"/>
</g>
<defs>
<clipPath id="clip0_54_123">
<rect width="81.9995" height="32.1501" fill="white"/>
</clipPath>
</defs>
</svg>
