<svg width="69" height="40" viewBox="0 0 69 40" fill="none" xmlns="http://www.w3.org/2000/svg">
<path fill-rule="evenodd" clip-rule="evenodd" d="M27.6025 10.601C27.8908 10.601 28.1231 10.3773 28.1231 10.1022C28.125 10.0357 28.1129 9.96953 28.0876 9.90756C28.0622 9.8456 28.0241 9.78911 27.9755 9.74145C27.9269 9.69378 27.8689 9.65589 27.8047 9.63002C27.7405 9.60415 27.6716 9.59082 27.602 9.59082C27.5323 9.59082 27.4634 9.60415 27.3992 9.63002C27.3351 9.65589 27.277 9.69378 27.2284 9.74145C27.1798 9.78911 27.1417 9.8456 27.1164 9.90756C27.091 9.96953 27.0789 10.0357 27.0808 10.1022C27.0808 10.3773 27.3127 10.601 27.6025 10.601ZM33.9045 20.8224C34.6788 20.8224 35.1998 20.7226 35.6194 20.5748C36.0367 20.4266 36.3574 20.2481 36.5909 20.0653C36.8124 19.8921 36.953 19.7165 37.1895 19.6011C37.3979 19.4981 37.6914 19.4739 38.0208 19.4739C38.4936 19.4739 39.0258 19.6135 39.4148 19.818L39.4708 19.1265C39.2116 19.0043 38.2978 18.6982 37.5042 18.6982C36.6024 18.6982 36.2616 18.9305 35.9285 19.2177C35.541 19.5533 35.0514 19.9523 33.7274 19.9523C33.3746 19.9523 32.528 19.8611 32.1842 19.8611C31.9753 19.8611 31.8149 19.911 31.8149 19.911C31.878 20.1002 32.013 20.6214 32.013 20.6214C32.33 20.6592 32.8831 20.8224 33.9045 20.8224ZM29.8342 18.7716C30.1024 18.7716 30.8822 18.8853 31.7829 18.9679C32.2945 19.0139 32.842 19.0502 33.3589 19.0502C34.3707 19.0502 35.4788 18.5906 36.4585 18.1107L36.2668 17.4448C35.8092 17.6843 34.9384 17.9504 34.2126 18.0608C34.034 18.0886 33.5152 18.0954 33.3675 18.073C33.1229 18.0366 32.8293 17.9525 32.5138 17.8977C32.0708 17.8182 31.5867 17.7993 31.2999 17.7872C30.9833 17.7737 30.4156 17.825 30.1367 17.8424C29.1118 17.9009 28.4346 18.1314 27.7864 18.5493C27.4589 18.7609 27.0409 19.1065 26.7183 19.5248C26.8842 19.5366 27.3575 19.6627 27.3575 19.6627C28.0564 19.0948 29.1066 18.7716 29.8342 18.7716Z" fill="#343451"/>
<path fill-rule="evenodd" clip-rule="evenodd" d="M17.4843 19.0936C17.9833 19.0936 18.1836 19.2482 18.4588 19.4064C18.6517 19.5201 18.8031 19.6455 18.947 19.7698C19.2551 20.0328 19.1671 20.274 18.9254 20.456C18.8012 20.5504 18.6949 20.6641 18.3816 20.8586C18.2306 20.9537 17.9695 21.1066 17.7913 21.1786C17.4776 21.3025 17.3411 21.3164 17.2274 21.3164C17.1121 21.3164 16.9286 21.2993 16.8257 21.2014L16.028 21.6674C16.2674 21.8459 16.5393 21.9064 16.9969 21.9064C17.5138 21.9064 17.9263 21.7999 18.4357 21.6093C19.0962 21.3595 19.8387 20.8689 20.0853 20.7346C20.5898 20.4592 21.0993 20.2804 21.6449 20.2804C22.1256 20.2804 22.6675 20.5522 23.2747 20.8294C23.9915 21.1579 24.8668 21.4796 25.6716 21.4796C26.1542 21.4796 26.6946 21.4123 27.2603 21.3022C28.2651 21.1062 29.3455 20.7827 30.4028 20.4403L30.0593 19.8507C29.8016 19.9415 28.9188 20.1788 27.9697 20.3805C27.1828 20.5454 26.3847 20.6947 25.9707 20.6947C25.6324 20.6947 25.2341 20.6712 24.8776 20.5661C24.2723 20.3922 23.7286 20.2098 23.7286 19.7452C23.7286 19.4239 23.8725 19.1966 24.2798 19.0401C24.9388 18.7872 25.9655 18.8029 26.5055 18.8029C26.6066 18.6995 27.0153 18.23 27.0153 18.23C26.5825 18.1467 26.1422 18.1041 25.7007 18.1028C25.0238 18.1028 24.3984 18.1854 23.88 18.3935C23.3992 18.5866 23.0211 18.8652 22.7473 19.2418C22.6373 19.3914 22.5239 19.534 22.3587 19.534C22.0846 19.534 21.6091 19.3205 21.1123 19.3205C20.896 19.3205 20.7125 19.3633 20.5216 19.3633C20.0189 19.3633 19.3636 19.0141 18.7799 18.7166C18.4126 18.5292 18.0344 18.3536 17.5951 18.3536C17.4131 18.3536 17.1632 18.3967 16.9413 18.4861C16.5147 18.6564 16.0821 18.9318 15.8643 19.1053L16.2551 19.3619C16.483 19.2482 16.8977 19.0936 17.4843 19.0936ZM52.7679 24.4492C50.8894 22.9357 49.0721 21.2797 47.7906 19.9259C45.5776 17.5915 42.5627 13.1369 41.533 10.6162C41.1526 9.68879 40.3675 10.0037 40.7695 10.9468C41.7418 13.2249 43.984 16.5747 46.3249 19.3362C45.7793 19.1053 45.1028 18.7954 44.7369 18.6411C44.6124 18.8356 44.3043 19.2208 43.9873 19.5372C43.6203 19.902 43.2422 20.1977 43.1251 20.301C42.8674 20.5301 42.6787 20.5472 42.5052 20.2928C42.4265 20.1721 42.2591 19.9558 42.1722 19.5803L41.6747 18.9785C41.408 18.6586 40.159 17.0261 39.7764 16.477C39.3949 15.9302 38.9 15.3448 38.0981 15.3448C37.1061 15.3448 36.7637 16.3944 36.6865 17.3524L37.3452 17.0788C37.4988 16.4852 37.8035 16.1756 38.0985 16.1756C38.3089 16.1756 38.5669 16.4681 38.5669 16.6865C38.4715 16.9431 38.298 17.4729 38.2138 17.8822L38.8627 18.0924C38.8627 17.791 38.9951 17.2438 39.1774 16.9602C39.1774 16.9602 39.3572 17.1062 39.4243 17.2252C39.4672 17.3022 39.788 17.7704 40.1594 18.3931C40.491 18.9489 40.8594 19.6355 41.1981 20.1824C41.3618 20.4457 41.5497 20.6815 41.6751 20.8672C41.8425 21.1119 41.9928 21.2833 42.1521 21.3699C42.3012 21.4486 42.4623 21.4508 42.5921 21.4508C43.0117 21.4508 43.2041 21.3179 43.4887 21.0863C44.022 20.647 44.4815 20.0367 44.9566 19.4894L46.0769 19.9725C46.5101 20.1694 46.9473 20.3582 47.3882 20.5387C48.3433 21.5747 49.4126 22.5898 50.5344 23.555L51.2963 24.1966C51.504 24.3684 51.7121 24.5369 51.9236 24.704L52.7679 24.4492Z" fill="#343451"/>
<path fill-rule="evenodd" clip-rule="evenodd" d="M56.9728 24.1385C55.054 20.126 52.5258 15.1915 50.3631 12.1688L49.8581 11.4908C49.1361 10.5606 48.3548 9.78921 47.5891 9.04102L46.9946 8.48201C45.4961 7.095 43.8145 5.70835 42.5331 4.72038C41.4027 3.85033 40.599 1.84375 38.0096 1.84375C35.6758 1.84375 34.8776 3.35938 34.6166 4.24759C34.4432 4.83047 34.3682 5.03177 34.2056 5.25053L32.7231 6.93681L34.4719 6.80249L33.5858 8.20803C34.0937 8.10684 37.1604 7.51826 37.7911 8.46455C38.5567 9.60893 38.0343 10.8509 39.4656 13.4543L40.0847 14.4832C40.797 15.5777 41.6406 16.6526 42.3903 17.5009L41.6735 18.9788L42.171 19.5806L43.2853 17.3356C42.7166 16.8504 41.0141 14.6635 40.3103 13.4472C38.7108 10.6806 39.3392 9.25764 38.3632 7.98963C37.4592 6.81283 34.8735 7.36863 34.8735 7.36863L35.8272 6.09064L34.1765 6.28303L34.9399 5.40586C35.1025 5.17891 35.1402 5.04139 35.2066 4.82227C35.5307 3.69927 36.3806 2.58589 37.9944 2.58589C39.9538 2.58589 40.514 4.02277 41.876 5.1668C43.2547 6.3265 46.1458 8.55612 48.7907 11.4395C50.9236 13.7639 53.6573 19.168 55.7573 23.4334C53.4615 22.3646 49.5732 18.6899 47.9445 15.9369L47.1759 15.851C48.9246 19.0201 52.6776 22.7102 56.3895 24.7192L56.9728 24.1385Z" fill="#343451"/>
<path fill-rule="evenodd" clip-rule="evenodd" d="M51.6565 10.8917C52.2685 10.4717 52.9931 10.1293 53.7566 9.85247C54.2265 10.3962 55.3341 10.8725 56.2128 10.9844L56.0722 11.8726C55.0977 11.4027 53.375 10.9242 51.6565 10.8917L50.886 11.5245C53.2177 11.5658 54.702 12.0169 56.6238 12.7893L57.0053 10.4443C56.2434 10.3445 55.0421 10.1364 54.6263 9.57207C56.384 9.06081 58.208 8.86806 59.2851 8.88231V5.99321C58.8044 6.26185 58.1991 6.51303 57.6281 6.68191C56.9296 6.88641 56.2945 6.9762 56.1195 6.68191C55.9264 6.3584 56.89 5.78193 57.8832 5.27779L55.6478 3.50386C55.3091 3.93924 54.5397 5.15737 53.7554 5.96221C53.1983 6.53369 52.6243 6.9085 52.2965 6.67478C52.1245 6.55079 52.1178 6.19309 52.2599 5.74239C52.5318 4.87662 53.2467 3.67417 53.6823 3.14437L50.5925 2.8654C50.5925 4.07178 49.9995 5.4 49.2697 6.47348C48.6401 7.39732 47.7268 8.06891 46.9954 8.48149L47.5899 9.0405C48.4939 8.44016 49.3745 7.70551 50.0555 6.6591C50.6033 5.81792 51.1124 4.80109 51.3033 3.61039L52.3733 3.72903C51.9284 4.50822 51.4257 5.71816 51.3876 6.50946C51.4145 7.04781 51.523 7.144 51.8131 7.34887C52.3498 7.73258 53.0144 7.47464 53.648 6.9566C54.3466 6.3869 55.0335 5.43206 55.7306 4.56808L56.6338 5.28777C55.4889 5.96186 55.1648 6.68297 55.5143 7.16111C55.6504 7.34673 55.9446 7.48639 56.3097 7.49672C56.6719 7.50528 57.1008 7.40338 57.5692 7.29685C57.8985 7.22096 58.2554 7.11123 58.5847 7.01467V8.16404C55.9827 8.34147 51.5416 9.34761 49.8593 11.4896L50.3643 12.1676C50.5101 11.9389 50.6861 11.7251 50.8864 11.5238L51.6565 10.8917ZM17.6309 5.24502L17.9803 5.49584C18.8955 4.78363 19.9651 3.48819 20.5685 2.26827L20.2568 2.05664C19.6731 2.56791 18.2809 4.2346 17.6309 5.24502Z" fill="#343451"/>
<path fill-rule="evenodd" clip-rule="evenodd" d="M17.0938 4.4659C16.5807 2.73544 17.8968 1.69937 19.2711 1.79557C19.7865 0.847501 20.5947 0.658315 21.454 1.15034C22.2535 1.60995 22.1868 2.77784 21.5203 3.32509C21.7583 4.36579 20.7912 5.84899 19.2894 5.77524C19.4676 7.21177 17.6231 8.02908 16.505 7.09099C15.5756 6.31216 15.7699 5.01494 17.0938 4.4659ZM16.458 4.20119C15.981 4.30095 15.7322 4.52968 15.5196 5.02384C15.6621 3.90013 14.8804 2.82309 13.5926 2.90574C13.7187 0.898092 11.6369 -0.297591 9.79605 0.679692C8.70854 -0.209945 7.49273 -0.0293098 6.76139 0.798334C6.06249 1.58964 6.08598 2.92463 7.49833 3.63719C7.14142 5.02384 8.47097 6.40194 10.034 6.08165C10.1239 6.50847 10.4517 6.73721 10.8839 6.90751C10.2339 6.94385 9.96723 7.56129 9.96723 7.56129C7.8944 7.05394 6.82479 8.37005 6.7901 9.75135C5.27744 10.1903 4.85414 11.9966 6.01251 13.0516C7.21004 14.1457 8.63842 13.6968 9.26124 12.5781C10.5975 13.0634 12.0278 12.2753 12.065 10.8647C13.5546 10.9987 14.1256 9.87712 13.9868 8.69533L13.5147 8.65899C13.3114 9.7567 12.7654 10.2298 11.5191 10.2298C11.465 11.2844 10.2854 12.1997 8.94909 11.9575C8.57428 12.8004 7.47409 13.0755 6.72297 12.3704C5.97373 11.6649 6.22211 10.3385 7.5442 10.0991C7.49012 8.80542 8.80811 8.00379 10.6904 8.08965C11.2252 7.45654 11.6574 7.1879 12.4589 7.26201L12.4663 6.89397C11.7152 6.79742 10.8686 6.11763 10.806 5.38689C9.20306 5.50874 8.10586 4.63122 8.16031 3.2549C7.13023 2.79387 7.31558 1.78381 7.649 1.40045C8.22333 0.738122 9.02629 0.791208 9.67521 1.32634C11.5067 0.657246 12.9814 2.03855 12.9814 3.54741C12.9814 3.54741 13.8373 3.53173 14.318 4.01022C14.9539 4.64511 14.9539 5.19735 15.1049 5.81301C15.2474 6.39446 15.5536 7.16724 16.301 7.72446C17.6227 8.70887 19.6709 8.44202 19.8797 6.3656C21.6389 6.51488 22.7954 5.19557 22.2155 3.58197C23.4473 2.74221 23.2023 1.01139 22.0443 0.341936C21.7843 0.177926 21.4903 0.0695227 21.1824 0.0241474C20.8745 -0.0212279 20.56 -0.00250288 20.2604 0.0790391C19.9607 0.160581 19.6831 0.303015 19.4464 0.496589C19.2098 0.690163 19.0197 0.930306 18.8892 1.20058C17.0864 0.804747 15.617 2.52203 16.458 4.20119ZM24.5912 14.2608C24.7497 13.6551 23.9139 13.5654 23.7987 14.1233C23.6763 14.7204 22.9163 15.739 22.1961 16.3771L22.4534 16.6422C23.3989 15.9674 24.3879 15.0336 24.5912 14.2608ZM28.789 4.25605C28.9265 4.25113 29.0565 4.19553 29.1519 4.10092C29.2473 4.00631 29.3006 3.88007 29.3006 3.74871C29.3006 3.61735 29.2473 3.4911 29.1519 3.3965C29.0565 3.30189 28.9265 3.24628 28.789 3.24136C28.4955 3.24136 28.2598 3.4701 28.2598 3.74871C28.2598 4.0291 28.4955 4.25605 28.789 4.25605ZM36.609 4.71886C36.613 4.56185 36.6811 4.41255 36.7987 4.30285C36.9164 4.19315 37.0743 4.13175 37.2387 4.13175C37.4031 4.13175 37.561 4.19315 37.6786 4.30285C37.7963 4.41255 37.8644 4.56185 37.8684 4.71886C37.8686 4.79803 37.8526 4.87646 37.821 4.94967C37.7895 5.02288 37.7432 5.08943 37.6847 5.14553C37.6263 5.20162 37.5568 5.24614 37.4803 5.27655C37.4038 5.30697 37.3217 5.32267 37.2389 5.32276C36.892 5.32276 36.609 5.0527 36.609 4.71886ZM35.611 15.5424C31.5123 15.2417 27.4315 15.4875 27.4315 15.4875L27.7191 14.7699C31.638 14.4981 35.6688 14.7699 35.6688 14.7699L35.611 15.5424Z" fill="#343451"/>
<path fill-rule="evenodd" clip-rule="evenodd" d="M10.8423 18.2683C10.8423 18.2683 11.0747 18.5647 11.4368 18.9328C11.5595 19.0981 11.6942 19.2164 11.865 19.3699C12.6164 20.07 13.7219 20.5948 14.862 20.8047C15.186 20.8638 15.4743 20.9098 15.7951 20.9098C16.2814 20.9098 16.7293 20.6604 17.0157 20.4156L16.5693 19.9183C16.4253 19.9592 16.1262 19.9592 15.9282 19.9592C14.2749 19.9592 12.1771 18.9257 11.6942 17.7278C11.6453 17.611 11.5879 17.5458 11.6367 17.4353C11.6833 17.3252 11.7449 17.0933 11.7788 16.8799C11.8761 16.9864 12.0757 17.1464 12.3297 17.3028C12.9458 17.6797 14.1164 18.201 14.345 18.3406C14.8247 18.2096 15.2893 18.0326 15.7317 17.8123C16.0755 17.642 16.5458 17.4888 17.0896 17.4888C18.2979 17.4888 19.6864 18.1458 20.9906 18.76L21.8819 18.4262C20.7239 17.647 18.2065 16.5578 16.8054 16.5578C15.9804 16.5578 15.2039 17.1361 14.6516 17.1361C13.9725 17.1361 12.0276 16.2293 12.0276 15.474C12.0276 14.8926 13.2863 14.5619 15.3102 14.3243C14.9572 14.8218 14.6262 15.3333 14.3182 15.8574L14.8332 16.131C18.0029 11.7384 21.2986 8.88638 24.0722 7.15022C25.0807 6.51853 25.3096 6.14907 25.6606 5.45895C26.5199 3.7798 27.3303 2.48757 28.7404 2.48757C29.3975 2.48757 29.936 2.84207 30.3056 3.27923L31.3249 3.57173L30.2926 4.24083L31.3484 4.64343C29.9703 5.01325 28.0885 6.29515 27.325 8.1756C25.8571 8.2497 25.1493 9.38695 24.6704 10.34C24.346 10.982 23.8313 11.2382 23.0802 11.7252L17.0776 15.7288L17.9041 15.8388L23.449 12.2842C24.5444 11.5791 25.0628 11.0593 25.3261 10.5566C25.8392 9.57258 26.3942 8.84149 27.4821 8.84149C28.0169 8.84149 28.5875 9.05989 29.0451 9.4746L30.0192 9.77743L28.9567 10.3984L29.848 10.9236C27.3015 11.686 25.7255 13.4304 24.8106 16.7645L25.4842 16.9091C25.821 15.8064 26.1559 14.7932 26.7518 13.8982C28.225 13.8829 29.7186 13.8312 31.1824 13.8312C35.0905 13.8312 38.3355 13.9894 40.0861 14.4832L39.467 13.4543C37.5945 13.1479 34.8764 12.9914 31.1828 12.9914C29.9457 12.9914 28.69 13.0342 27.444 13.0481C28.2492 12.2343 29.4053 11.5478 31.1884 11.0198L29.9241 10.3539L31.3286 9.60713L29.4143 8.92557C29.0794 8.63841 28.6632 8.37511 28.1396 8.24757C28.7534 6.44621 30.8408 5.3934 32.8435 4.6673L31.4409 4.11827L32.8543 3.37863L30.6771 2.71417C30.108 2.07429 29.5623 1.7832 28.7228 1.7832C26.7022 1.7832 25.8523 3.46057 25.0527 4.94733C24.6294 5.73187 24.3646 6.06214 23.6478 6.50963C22.0934 7.48156 20.1141 8.96797 18.2237 10.8726C17.2365 10.1918 15.2174 8.19875 14.6721 7.11174C14.4558 7.36791 14.2417 7.92584 14.2417 7.92584C14.4491 8.13356 16.8244 10.4305 17.7083 11.4042C17.6415 11.4748 17.5755 11.5453 17.5087 11.6176C16.5667 11.7965 14.1213 12.022 13.2889 11.9137L12.8208 12.7071C13.4418 12.6487 15.8734 12.3747 16.8818 12.3181C16.5727 12.6768 16.273 13.0428 15.983 13.4158C12.8585 13.7564 10.7692 14.3688 10.7692 15.4737C10.7692 15.6561 10.8464 15.8624 10.8464 16.0565C10.8464 16.5193 10.6644 16.69 10.3206 16.8963C10.0972 17.0324 10.0827 17.1254 10.1785 17.2526C10.6969 18.0528 9.08689 18.45 10.2087 19.8816L11.1597 19.9364C11.1593 19.9368 10.2318 19.4212 10.8423 18.2683ZM9.60976 2.37534L9.30021 2.67818C9.74514 3.28564 11.7154 4.97192 12.7145 5.59826L13.0819 5.16288C12.4266 4.42645 10.5641 2.83851 9.60976 2.37534ZM8.25 10.8751L8.54164 11.1794C9.29276 10.832 10.7044 9.83408 11.4681 9.08589L11.2578 8.78804C10.3605 9.14611 8.97389 10.1266 8.25 10.8751Z" fill="#343451"/>
<path fill-rule="evenodd" clip-rule="evenodd" d="M51.7617 23.3068C51.7618 23.1823 51.7362 23.0589 51.6865 22.9438C51.6367 22.8287 51.5636 22.724 51.4715 22.6359C51.3794 22.5477 51.27 22.4778 51.1495 22.4301C51.0291 22.3823 50.9 22.3577 50.7696 22.3577L49.3006 22.357C49.17 22.3572 49.0407 22.382 48.9202 22.43C48.7997 22.478 48.6902 22.5482 48.5981 22.6366C48.5059 22.725 48.433 22.8299 48.3833 22.9453C48.3336 23.0606 48.3082 23.1842 48.3086 23.309L48.3093 37.9897C48.309 38.1144 48.3344 38.2378 48.3842 38.3531C48.4339 38.4683 48.5069 38.573 48.5991 38.6613C48.6912 38.7495 48.8007 38.8195 48.9212 38.8673C49.0417 38.915 49.1709 38.9396 49.3013 38.9396H50.7704C50.9008 38.9393 51.03 38.9145 51.1504 38.8665C51.2708 38.8186 51.3802 38.7484 51.4722 38.6601C51.5643 38.5718 51.6372 38.467 51.6869 38.3517C51.7365 38.2364 51.7619 38.113 51.7617 37.9883V23.3068ZM53.6342 23.6973V24.3953C53.6344 24.4641 53.6489 24.5321 53.6767 24.5956C53.7044 24.659 53.745 24.7166 53.7961 24.7651C53.8472 24.8136 53.9078 24.852 53.9744 24.8781C54.041 24.9042 54.1123 24.9175 54.1843 24.9173H64.3217C64.7834 24.9173 65.1586 24.561 65.1586 24.1192V22.937C65.1586 22.4959 64.7789 22.0958 64.3195 22.1389C64.3195 22.1389 54.5211 23.0574 54.2048 23.0916C53.8397 23.1301 53.6342 23.4084 53.6342 23.6973ZM45.4279 38.9403C42.9061 38.9403 41.3188 37.1136 41.3188 35.0796L41.3166 29.2059H40.5946C40.5031 29.206 40.4126 29.1889 40.3281 29.1556C40.2436 29.1223 40.1668 29.0733 40.1021 29.0116C40.0375 28.9499 39.9862 28.8766 39.9512 28.7959C39.9162 28.7152 39.8982 28.6287 39.8983 28.5414V27.558C39.8983 27.1907 40.2115 26.8957 40.5953 26.8957L41.3166 26.8964L41.3151 23.2848C41.3148 23.1633 41.3397 23.0429 41.3882 22.9306C41.4367 22.8183 41.5079 22.7162 41.5978 22.6302C41.6877 22.5442 41.7944 22.476 41.9119 22.4295C42.0294 22.383 42.1553 22.3591 42.2825 22.3591H43.7154C43.9724 22.3599 44.2186 22.458 44.4 22.632C44.5814 22.806 44.6831 23.0417 44.6828 23.2872L44.6835 26.8961H46.9175C47.3027 26.8961 47.616 27.1918 47.616 27.5591V28.5425C47.6159 28.6297 47.5979 28.7161 47.5628 28.7966C47.5278 28.8772 47.4765 28.9504 47.4118 29.012C47.3471 29.0735 47.2704 29.1223 47.1859 29.1556C47.1015 29.1888 47.011 29.2057 46.9197 29.2055H44.6835L44.685 34.6389C44.685 35.7056 45.3615 36.4335 46.5717 36.4335L46.775 36.4321C47.1923 36.4321 47.5317 36.7534 47.5317 37.1521V38.2195C47.5318 38.3143 47.5122 38.4081 47.4742 38.4957C47.4362 38.5832 47.3805 38.6627 47.3103 38.7296C47.24 38.7965 47.1567 38.8495 47.0649 38.8855C46.9732 38.9215 46.8749 38.9399 46.7757 38.9396H45.4279V38.9403ZM28.1617 32.7317C28.1617 29.6003 26.2212 26.4732 21.8119 26.4732C17.7353 26.4732 15.4487 29.5212 15.4487 32.7324C15.4487 36.1545 17.8979 39.1683 21.8384 39.1683C24.5355 39.1683 27.1943 37.8105 27.6966 35.5805C27.7645 35.2798 27.5523 34.8854 27.1085 34.884H25.1815C24.8317 34.884 24.5456 35.044 24.3733 35.2855C23.8221 36.058 23.0139 36.4691 21.8194 36.4691C20.1314 36.4691 18.9611 35.1986 18.8731 33.7895H27.0693C27.8242 33.7895 28.1617 33.3983 28.1617 32.7317ZM18.8985 31.3935C19.0301 30.0093 20.3067 28.9864 21.8119 28.9864C23.3168 28.9864 24.6157 30.0093 24.7474 31.3935H18.8985ZM65.5095 32.7317C65.5095 29.6003 63.5691 26.4732 59.1594 26.4732C55.0831 26.4732 52.7966 29.5212 52.7966 32.7324C52.7966 36.1545 55.2461 39.1683 59.1862 39.1683C61.8834 39.1683 64.5421 37.8105 65.0448 35.5805C65.1127 35.2798 64.9005 34.8854 64.4571 34.884H62.5297C62.1799 34.884 61.8938 35.044 61.7211 35.2855C61.1703 36.058 60.3618 36.4691 59.1672 36.4691C57.4796 36.4691 56.3097 35.1986 56.221 33.7895H64.4179C65.172 33.7895 65.5095 33.3983 65.5095 32.7317ZM56.2463 31.3935C56.3776 30.0093 57.6542 28.9864 59.1594 28.9864C60.665 28.9864 61.9639 30.0093 62.0956 31.3935H56.2463Z" fill="#343451"/>
<path fill-rule="evenodd" clip-rule="evenodd" d="M38.5595 22.5226H12.0107C11.8673 22.5226 11.7253 22.5496 11.5928 22.6021C11.4603 22.6546 11.34 22.7315 11.2387 22.8284C11.1374 22.9254 11.057 23.0405 11.0023 23.1671C10.9476 23.2938 10.9196 23.4295 10.9198 23.5665L11.0112 33.5278C11.0112 33.5278 5.29023 23.6563 4.99187 23.1525C4.71179 22.6786 4.10948 22.2422 3.27595 22.2422H1.09273C0.949167 22.2422 0.807012 22.2692 0.674387 22.3217C0.541763 22.3742 0.421268 22.4512 0.319789 22.5482C0.21831 22.6452 0.137836 22.7604 0.082965 22.8871C0.0280941 23.0138 -9.774e-05 23.1497 2.54594e-07 23.2868L0.00111901 37.8951C0.00102102 38.0322 0.0291884 38.1679 0.0840126 38.2946C0.138837 38.4213 0.219244 38.5364 0.320644 38.6334C0.422045 38.7304 0.542451 38.8074 0.67499 38.86C0.807528 38.9125 0.949603 38.9396 1.0931 38.9397H2.49351C2.78355 38.939 3.06145 38.8284 3.26608 38.632C3.47072 38.4356 3.58534 38.1697 3.58475 37.8926L3.49673 27.6523C3.49673 27.6523 9.27291 37.6225 9.52017 38.0152C9.85321 38.546 10.4171 38.9401 11.2346 38.9401H13.2403C13.3838 38.94 13.5258 38.9129 13.6584 38.8603C13.7909 38.8078 13.9113 38.7308 14.0126 38.6338C14.114 38.5368 14.1944 38.4216 14.2491 38.295C14.3039 38.1683 14.3321 38.0325 14.3319 37.8954L14.3312 24.9984L38.561 24.9991C38.659 24.9994 38.7561 24.9812 38.8467 24.9456C38.9373 24.91 39.0197 24.8577 39.0891 24.7916C39.1585 24.7256 39.2136 24.6471 39.2513 24.5606C39.2889 24.4742 39.3083 24.3816 39.3084 24.288V23.2344C39.3078 23.0452 39.2286 22.8639 39.0882 22.7304C38.9478 22.597 38.7576 22.5222 38.5595 22.5226Z" fill="#343451"/>
<path fill-rule="evenodd" clip-rule="evenodd" d="M34.2632 28.8648C35.4178 28.8648 36.2808 29.2649 36.5919 29.9558C36.7411 30.2878 37.0305 30.3516 37.428 30.3516H39.0153C39.2775 30.3516 39.5792 30.136 39.5792 29.8083C39.5792 28.0457 37.3788 26.4717 34.261 26.4717C31.0376 26.4717 28.9204 27.9385 28.9204 30.2761C28.9204 32.0639 30.3995 33.1278 32.2176 33.582C33.0463 33.7887 34.4612 34.1229 35.1501 34.296C35.893 34.4816 36.5572 34.699 36.5572 35.3064C36.5572 36.2659 35.4988 36.5923 34.3426 36.5923C33.2473 36.5923 32.1564 36.1252 31.8435 35.3788C31.6627 34.9466 31.3453 34.8839 30.8642 34.8839H29.2497C28.9681 34.8839 28.644 35.1147 28.644 35.4657V35.6648C28.644 37.3711 31.0402 39.1582 34.3456 39.1582C36.6896 39.1582 39.9551 38.2272 39.9551 35.2245C39.9551 33.4855 38.7371 32.2816 36.7552 31.8002C35.9802 31.6125 34.117 31.16 33.7116 31.0599C32.9892 30.881 32.3149 30.6562 32.3149 30.0648C32.3153 29.1687 33.182 28.8648 34.2632 28.8648ZM66.6483 38.3231H66.2884V36.7155H66.9172C67.3513 36.7155 67.6079 36.8338 67.6079 37.2011C67.6079 37.4969 67.4259 37.6041 67.2028 37.6201L67.6325 38.3231H67.2062L66.818 37.6476H66.6483V38.3231ZM66.9664 37.3754C67.1282 37.3754 67.223 37.3433 67.223 37.1652C67.223 36.9995 67.0365 36.9877 66.9011 36.9877H66.6483V37.3754H66.9664ZM66.9082 39.0139C66.0777 39.0139 65.337 38.4649 65.337 37.5207C65.337 36.5773 66.0777 36.0283 66.9082 36.0283C67.7358 36.0283 68.4764 36.5773 68.4764 37.5207C68.4764 38.4649 67.7358 39.0139 66.9082 39.0139ZM66.9082 36.3753C66.2884 36.3753 65.7879 36.8338 65.7879 37.5207C65.7879 38.2084 66.2884 38.6712 66.9082 38.6669V38.6712C67.5127 38.6712 68.0248 38.2084 68.0248 37.5207C68.0248 36.8338 67.5127 36.3753 66.9082 36.3753Z" fill="#343451"/>
</svg>
