<svg width="116" height="31" viewBox="0 0 116 31" fill="none" xmlns="http://www.w3.org/2000/svg">
<path d="M15.9384 0C7.13399 0 0 6.84412 0 15.2908C0 23.7374 7.13399 30.5815 15.9384 30.5815C24.7428 30.5815 31.8651 23.7374 31.8651 15.2908C31.8651 6.84412 24.7312 0 15.9384 0ZM21.4948 23.0363C21.0192 23.2478 20.5204 23.4258 20.01 23.5482C18.0728 24.0602 16.124 24.0824 14.1984 23.4815C11.8668 22.7581 10.3124 21.2335 9.39598 19.0856C9.22198 18.6739 9.09438 18.2399 8.96678 17.8058H7.12239C6.80919 17.8058 6.56559 17.5721 6.56559 17.2717V16.092C6.56559 15.7916 6.80919 15.5579 7.12239 15.5579H8.63038C8.63038 15.2351 8.63038 14.9235 8.63038 14.5897H7.12239C6.80919 14.5897 6.56559 14.356 6.56559 14.0555V12.8758C6.56559 12.5754 6.80919 12.3417 7.12239 12.3417H9.04798L9.11758 12.1636C9.63958 10.5833 10.5212 9.23678 11.9016 8.21294C12.992 7.40055 14.2448 6.95541 15.602 6.74396C17.5276 6.44349 19.3836 6.69945 21.1932 7.3783C21.3092 7.42281 21.4252 7.47845 21.5296 7.5341C21.9588 7.77893 22.0748 8.09053 21.8776 8.53568C21.6688 9.00308 21.4716 9.47048 21.2512 9.93789C21.0656 10.3385 20.7988 10.4609 20.358 10.3608C19.7548 10.2272 19.1516 10.0492 18.5368 9.92676C17.2492 9.6708 15.9732 9.65967 14.7204 10.1382C13.6416 10.55 12.992 11.329 12.5396 12.3194C12.528 12.3305 12.528 12.3417 12.528 12.3528H16.2748C16.588 12.3528 16.8316 12.5865 16.8316 12.887V14.0666C16.8316 14.3671 16.588 14.6008 16.2748 14.6008H12.006C11.9944 14.9124 12.006 15.2351 12.006 15.569H16.2864C16.5996 15.569 16.8432 15.8027 16.8432 16.1032V17.2828C16.8432 17.5833 16.5996 17.817 16.2864 17.817H12.3772C12.8528 19.1079 13.6184 20.1095 15.0568 20.5435C16.2052 20.8885 17.3652 20.8662 18.5368 20.6436C19.14 20.5212 19.7316 20.3432 20.3348 20.2208C20.8104 20.1206 21.0656 20.243 21.2628 20.6548C21.4832 21.1222 21.692 21.5896 21.8892 22.0681C22.0748 22.491 21.9588 22.836 21.4948 23.0363Z" fill="#343451"/>
<path d="M41.7825 21.2887L37.653 8.9248H40.8429L42.4089 14.1553C42.8497 15.6242 43.2557 17.0376 43.5573 18.5733H43.6153C43.9401 17.0821 44.3461 15.6242 44.7869 14.2109L46.4341 8.9248H49.5313L45.1929 21.2887H41.7825Z" fill="#343451"/>
<path d="M59.2404 16.7042C59.2404 19.9871 56.8161 21.4895 54.3105 21.4895C51.5729 21.4895 49.4733 19.7646 49.4733 16.8711C49.4733 13.9776 51.4569 12.1191 54.4613 12.1191C57.3265 12.1191 59.2404 14.011 59.2404 16.7042ZM52.4661 16.7932C52.4661 18.329 53.1389 19.4863 54.3801 19.4863C55.5053 19.4863 56.2361 18.4069 56.2361 16.7932C56.2361 15.4577 55.7025 14.1 54.3801 14.1C52.9881 14.1 52.4661 15.48 52.4661 16.7932Z" fill="#343451"/>
<path d="M61.0393 15.2793C61.0393 13.955 61.0045 13.0981 60.9581 12.3302H63.4637L63.5565 13.9772H63.6377C64.1133 12.6752 65.2617 12.1299 66.1665 12.1299C66.4333 12.1299 66.5725 12.1299 66.7813 12.1633V14.7896C66.5725 14.7563 66.3173 14.7117 65.9925 14.7117C64.9253 14.7117 64.1945 15.257 64.0089 16.1251C63.9741 16.3031 63.9509 16.5257 63.9509 16.7483V21.2999H61.0393V15.2793Z" fill="#343451"/>
<path d="M71.1538 16.1037H71.1886C71.3974 15.7365 71.6294 15.3692 71.8614 15.0242L73.7522 12.3311H77.2554L73.903 15.959L77.731 21.3008H74.1582L71.8962 17.6172L71.1538 18.4964V21.3008H68.2422V8.28027H71.1538V16.1037Z" fill="#343451"/>
<path d="M84.0181 21.2887L83.8441 20.3873H83.7861C83.1713 21.0995 82.2201 21.489 81.1065 21.489C79.2157 21.489 78.0905 20.1647 78.0905 18.7402C78.0905 16.4143 80.2713 15.2903 83.5773 15.3125V15.179C83.5773 14.7004 83.3105 14.0216 81.8721 14.0216C80.9209 14.0216 79.9001 14.3332 79.2853 14.7004L78.7517 12.8976C79.4013 12.5526 80.6773 12.1074 82.3825 12.1074C85.5029 12.1074 86.4889 13.8658 86.4889 15.9803V19.0963C86.4889 19.9532 86.5237 20.7879 86.6281 21.2776H84.0181V21.2887ZM83.6701 17.0597C82.1389 17.0375 80.9557 17.3936 80.9557 18.4731C80.9557 19.1853 81.4545 19.5415 82.1041 19.5415C82.8349 19.5415 83.4265 19.0852 83.6121 18.5176C83.6469 18.3729 83.6701 18.206 83.6701 18.0391V17.0597Z" fill="#343451"/>
<path d="M88.7744 18.852C89.308 19.1636 90.4216 19.5309 91.28 19.5309C92.1616 19.5309 92.5212 19.2415 92.5212 18.7741C92.5212 18.3067 92.2312 18.0953 91.1408 17.7503C89.2152 17.1271 88.4612 16.1144 88.4844 15.0571C88.4844 13.3878 89.9808 12.1191 92.2892 12.1191C93.3796 12.1191 94.354 12.3528 94.9224 12.6311L94.4004 14.5563C93.9828 14.3338 93.1824 14.0444 92.3704 14.0444C91.6628 14.0444 91.2568 14.3226 91.2568 14.7789C91.2568 15.2018 91.6164 15.4244 92.7648 15.8028C94.5396 16.3926 95.2936 17.2495 95.3052 18.5738C95.3052 20.2431 93.9248 21.4673 91.2568 21.4673C90.0388 21.4673 88.9484 21.2113 88.2408 20.8441L88.7744 18.852Z" fill="#343451"/>
<path d="M97.0796 18.852C97.6132 19.1636 98.7268 19.5309 99.5852 19.5309C100.467 19.5309 100.826 19.2415 100.826 18.7741C100.826 18.3067 100.536 18.0953 99.446 17.7503C97.5204 17.1271 96.7664 16.1144 96.7896 15.0571C96.7896 13.3878 98.286 12.1191 100.594 12.1191C101.685 12.1191 102.659 12.3528 103.228 12.6311L102.706 14.5563C102.288 14.3338 101.488 14.0444 100.676 14.0444C99.968 14.0444 99.562 14.3226 99.562 14.7789C99.562 15.2018 99.9216 15.4244 101.07 15.8028C102.845 16.3926 103.599 17.2495 103.61 18.5738C103.61 20.2431 102.23 21.4673 99.562 21.4673C98.344 21.4673 97.2536 21.2113 96.546 20.8441L97.0796 18.852Z" fill="#343451"/>
<path d="M107.636 17.6946C107.729 18.852 108.912 19.3973 110.269 19.3973C111.267 19.3973 112.067 19.2638 112.856 19.0301L113.239 20.922C112.287 21.2892 111.116 21.4673 109.851 21.4673C106.673 21.4673 104.863 19.7089 104.863 16.9045C104.863 14.6342 106.337 12.1191 109.585 12.1191C112.601 12.1191 113.749 14.3783 113.749 16.5929C113.749 17.0714 113.691 17.4943 113.656 17.6946H107.636ZM111.058 15.7916C111.058 15.1128 110.756 13.9776 109.411 13.9776C108.193 13.9776 107.694 15.046 107.613 15.7916H111.058Z" fill="#343451"/>
</svg>
